<?xml version="1.0" encoding="utf-8"?>
<!-- Generator: Adobe Illustrator 22.1.0, SVG Export Plug-In . SVG Version: 6.00 Build 0)  -->
<svg version="1.1" id="Layer_1" xmlns="http://www.w3.org/2000/svg" xmlns:xlink="http://www.w3.org/1999/xlink" x="0px" y="0px"
	 viewBox="0 0 1000 1000" style="enable-background:new 0 0 1000 1000;" xml:space="preserve">
<style type="text/css">
	.st0{fill:#9B9B9B;}
</style>
<title>bomb</title>
<path class="st0" d="M671.4,167.1l44.9,0.9c3.1,0.1,5.7-2.4,5.7-5.5l0.3-13.3c0.1-3.1-2.4-5.7-5.5-5.7l-44.9-0.9
	c-3.1-0.1-5.7,2.4-5.7,5.5l-0.3,13.2C665.9,164.4,668.4,167,671.4,167.1z M777.1,144.1c1.6,2.6,5.1,3.5,7.7,1.9l35.5-21.4
	c2.6-1.6,3.5-5.1,1.9-7.7l-6.8-11.4c-1.6-2.6-5.1-3.5-7.7-1.9L772.3,125c-2.6,1.6-3.5,5.1-1.9,7.7L777.1,144.1L777.1,144.1z
	 M717.7,110.4c1.1,2.9,4.4,4.3,7.3,3.2l12.4-4.8c2.9-1.1,4.3-4.4,3.2-7.3l-13.8-35.4c-1.1-2.9-4.4-4.3-7.3-3.2l-12.3,4.8
	c-2.9,1.1-4.3,4.4-3.2,7.3L717.7,110.4L717.7,110.4z M601.9,303.6v-62.9H521c10.9-37.9,36.5-65.6,87.2-46.9
	c30.2,11.2,57.8,29.1,87.5,41.3c19.3,8,50.6,18.8,69.1,3.2c23.9-20.2,9-58.9,0.4-82.7c-5.7-15.5-30.7-8.8-25,6.8
	c3.8,10.4,22.4,51.6,4.8,57.3c-12.3,3.9-31.1-5.2-42.4-9.5c-30-11.6-57.7-29-87.3-41.3c-67.6-28.2-105.6,16.8-120,71.7h-97.1v62.9
	c-129.7,42.7-223.3,164.8-223.3,308.9c0,179.6,145.6,325.2,325.2,325.2S825.3,792,825.3,612.4C825.2,468.3,731.5,346.3,601.9,303.6
	L601.9,303.6z M521.7,864.2c-19.9-0.5-35.4-17.1-34.9-36.9c0.5-19.8,17.1-35.4,36.9-34.7c115.5,3.2,159.3-124.7,161.2-130.2
	c5.9-17.5,23.8-27.6,41.5-23.9c1.2,0.4,2.5,0.7,3.9,1.1c18.8,6.3,29.1,26.3,23,45.2C750.7,692.2,691.3,868.7,521.7,864.2
	L521.7,864.2z"/>
</svg>
