<?xml version="1.0" encoding="utf-8"?>
<!-- Generator: Adobe Illustrator 22.0.1, SVG Export Plug-In . SVG Version: 6.00 Build 0)  -->
<svg version="1.1" id="Laag_1" xmlns="http://www.w3.org/2000/svg" xmlns:xlink="http://www.w3.org/1999/xlink" x="0px" y="0px"
	 viewBox="0 0 1242.8 503" style="enable-background:new 0 0 1242.8 503;" xml:space="preserve">
<style type="text/css">
	.st0{clip-path:url(#SVGID_2_);}
	.st1{fill:#FFFFFF;stroke:#000000;stroke-width:0.5;stroke-miterlimit:10;}
	.st2{fill:#E9ECEF;}
	.st3{fill:none;stroke:#E9ECEF;stroke-width:0.5;stroke-miterlimit:10;}
	.st4{fill:#E52629;}
	.st5{fill:#FFFFFF;}
	.st6{fill:#F39323;}
	.st7{fill:#FFFFFF;stroke:#868E96;stroke-width:0.5;stroke-miterlimit:10;}
	.st8{fill:url(#SVGID_3_);}
</style>
<g>
	<defs>
		<rect id="SVGID_1_" x="-0.3" y="0.1" width="1243.9" height="501.4"/>
	</defs>
	<clipPath id="SVGID_2_">
		<use xlink:href="#SVGID_1_"  style="overflow:visible;"/>
	</clipPath>
	<g class="st0">
		<g id="Land_4_">
			<g>
				<polygon id="polygon31_9_" class="st1" points="52,146.5 51.3,148.7 51.8,147.7 				"/>
				<polygon id="polygon33_9_" class="st1" points="50.4,153.7 49.7,153.9 49.9,154.6 49.4,155.6 49.6,156.3 50.1,155.4 				"/>
				<polygon id="polygon39_9_" class="st1" points="78.5,63.2 78.7,62 77.5,65.1 				"/>
				<polygon id="polygon123_9_" class="st1" points="75.4,71.3 75.9,70.3 76.6,68.5 				"/>
				<polygon id="polygon131_9_" class="st1" points="72.1,79.9 71.8,81.1 72.3,79.4 				"/>
				<polygon id="polygon133_9_" class="st1" points="48.9,156.5 49.1,157.3 49.6,156.3 				"/>
				<polygon id="polygon135_9_" class="st1" points="44.3,332.2 43.9,330.7 44.1,333.3 				"/>
				<line id="line183_9_" class="st1" x1="286.2" y1="487.5" x2="286.9" y2="489.7"/>
				<line id="line215_9_" class="st1" x1="78.7" y1="62" x2="77.5" y2="65.1"/>
				<line id="line217_9_" class="st1" x1="72.1" y1="79.9" x2="72.6" y2="77.7"/>
				<line id="line219_9_" class="st1" x1="72.1" y1="79.9" x2="71.8" y2="81.1"/>
				<line id="line221_9_" class="st1" x1="99" y1="15.5" x2="101.6" y2="10.8"/>
				<line id="line223_9_" class="st1" x1="103.6" y1="7" x2="103.1" y2="7.9"/>
				<polygon id="polygon233_9_" class="st1" points="104.4,4.4 104.1,5.9 105.3,3.5 				"/>
				<polygon id="polygon235_9_" class="st1" points="105.9,1.5 105.7,2.7 106.7,0.8 				"/>
				<polygon id="polygon245_9_" class="st1" points="101.9,9.1 101.6,10.8 103.1,7.9 				"/>
				<polygon id="polygon249_9_" class="st1" points="110,-6.1 107.4,-1.3 107.3,-0.4 110.2,-6.3 				"/>
				<polygon id="polygon259_9_" class="st1" points="94.7,24.8 94.6,25.3 95.2,23.9 				"/>
				<polygon id="polygon261_9_" class="st1" points="107.3,-0.4 106.7,0.8 107.1,0.3 				"/>
				<polygon id="polygon265_9_" class="st1" points="104.1,5.9 103.6,7 104.1,6 				"/>
				<polygon id="polygon267_9_" class="st1" points="99,15.5 97.5,18.4 98.8,17.2 				"/>
				<polygon id="polygon269_9_" class="st1" points="97.5,18.4 97.2,20.1 95.2,23.9 98.2,18.2 				"/>
				<polygon id="polygon271_9_" class="st1" points="105.7,2.7 105.3,3.5 105.6,3.2 				"/>
				<polygon id="polygon273_9_" class="st1" points="94.6,25.3 93.9,26.9 94.4,26.5 				"/>
				<polygon id="polygon275_9_" class="st1" points="701.2,343.7 707.4,335.5 702.8,325.7 706.9,315.7 703.6,312.7 710.6,314.6 
					717.2,310.2 701,304 698.4,300.8 702.3,298 685.5,287.2 693.3,284.1 687.2,279.6 700.3,273.2 693.5,268.9 705,259.8 
					693.1,257.1 688.6,260.8 687.8,255.5 683.4,259.2 683.8,252.7 675.2,248.2 673.1,254.4 670.6,248.8 665.5,268.6 660.4,272.6 
					664,273.9 662.2,278.4 647,286.2 641.2,306.3 624.6,316.9 626.3,333.1 610.6,333.9 607.1,330.2 601.5,343.1 604.4,352.5 
					609.8,354.8 609.7,362.1 616.2,362.5 611.6,363.1 617,365.4 616,369.7 621.1,365.7 631.2,385.7 647.5,379.2 652.3,387.3 
					662.5,376.2 669.7,376.4 671.6,379.8 681.3,375.2 684.9,384.5 688.9,381.7 700.3,367.1 697.2,364.8 700.4,364.7 700.6,355 
					694.2,352.2 698.3,342.2 				"/>
				<polygon id="polygon277_9_" class="st1" points="621.4,447.6 632.8,443.3 655.2,443.7 693.7,436.7 700.7,436.2 695.9,425.7 
					681.3,430.1 670.9,422.2 652.6,422.2 647.1,430.2 630.9,434.4 621.4,429.3 594.6,432.7 593.9,440.9 588.9,445.6 603.4,443.5 
					604.3,448.9 				"/>
				<polygon id="polygon279_9_" class="st1" points="689.6,418.1 674.3,422.7 683.2,423.2 				"/>
				<polygon id="polygon281_9_" class="st1" points="488.1,370.5 496.8,386.1 509.2,392.7 513.7,394.5 535.7,417.2 570.2,433.8 
					578.8,438.3 576.7,434.2 584.9,434.9 584.5,431 591.2,434.5 585.5,402.9 577.5,394.9 568.3,396.1 568,400.2 567.7,394 
					562.8,393.8 558.1,383.4 545.3,383.3 547.1,370.8 541.8,369.2 535.6,375.1 539.1,370.8 536,368.6 530.5,368.7 510.8,356.4 
					511.2,362.6 497.2,353.4 493.2,350.6 473.3,345.5 473.4,340.7 462.6,333.7 438.1,337.1 443.4,346.7 460.8,354.1 475.2,367.2 
									"/>
				<polygon id="polygon283_9_" class="st1" points="470.3,379.9 475.2,383.1 481.7,385.9 481.1,381.4 473.5,377.3 				"/>
				<polygon id="polygon285_9_" class="st1" points="554.8,362.1 553.2,357 549.3,359.8 552.6,360.3 				"/>
				<polygon id="polygon287_9_" class="st1" points="533.5,365.4 530.1,364.8 530.5,368.7 537.5,368.1 				"/>
				<polygon id="polygon289_9_" class="st1" points="496.1,404.6 505.4,409 499.1,401.3 				"/>
				<polygon id="polygon291_9_" class="st1" points="524,423.2 522,419 519.1,417.5 				"/>
				<polygon id="polygon293_9_" class="st1" points="529.9,364.1 526.3,362.8 528.4,366.9 				"/>
				<polygon id="polygon295_9_" class="st1" points="602.2,397.8 606.6,396.4 608,390.4 600.7,390.3 				"/>
				<polygon id="polygon297_9_" class="st1" points="579,384.1 571.2,387.3 570.6,393.1 578.1,391.6 582.5,398.2 591.1,397.9 
					591.3,393.1 584.8,392.7 				"/>
				<polygon id="polygon299_9_" class="st1" points="556,371.3 556.1,374.4 562.9,373.1 				"/>
				<polygon id="polygon301_9_" class="st1" points="583.6,310.3 581.3,313.4 584.8,317.1 585.9,312.8 				"/>
				<polygon id="polygon303_9_" class="st1" points="451.5,368.1 460.9,370 454.5,367.2 				"/>
				<polygon id="polygon305_9_" class="st1" points="728.7,193.7 727.4,194.9 724.4,198.2 734.4,204.7 737.1,200.7 736.1,198.7 
					737.6,191.8 740.6,186.1 738.3,175.7 736.9,192 736.1,198.6 733.2,193.1 734.2,183.3 729.2,182.4 				"/>
				<polygon id="polygon307_9_" class="st1" points="742,190.4 740.5,193.3 743.3,194.8 749.4,191.4 747.8,188.7 743,188.5 				"/>
				<polygon id="polygon309_9_" class="st1" points="739.6,172.1 743,178.2 753.6,186.9 751.6,182.8 754.7,182.6 748.9,172.6 
					758.1,172.8 751.2,160.6 745.5,157.6 736,160.4 746.9,167.5 748,171.1 				"/>
				<polygon id="polygon311_9_" class="st1" points="711.5,176.7 717.9,192.2 727.8,180.4 727,175.1 724,178.4 				"/>
				<polygon id="polygon313_9_" class="st1" points="735.8,170.1 724.4,164 726.1,172.2 728.6,167.5 735,170.3 				"/>
				<polygon id="polygon315_9_" class="st1" points="773.8,432.2 775.7,429.2 775.4,429.3 775.5,429.3 763.9,424.1 763.1,424.3 
					752.9,429.8 765.5,432.3 765.6,432.3 766.3,432.1 765.6,432.3 772.6,434.3 				"/>
				<polygon id="polygon317_9_" class="st1" points="794.7,402.8 792.4,400.3 788.8,406.9 778.9,410.8 765.2,410.1 761.4,416.1 
					759.7,418.2 762.1,418.3 781.4,414 				"/>
				<polygon id="polygon319_9_" class="st1" points="733.8,328.2 731,326.7 728.4,333.9 730.8,341.9 727.4,354.1 732.5,362.8 
					738.8,360.1 743.2,377.1 745.2,383.7 751.2,382.6 757,380.8 744.1,351.4 749.5,345.7 754.1,345.1 755,355.9 764.6,358.7 
					766.3,366.9 771.8,366.7 771.3,362.2 780.4,358.6 769.6,351.5 770.9,345.5 753.4,335 758,334.4 774.4,315 753.2,321.5 
					749.6,330.6 744.6,332.1 734.7,325.6 733.8,312.3 779.6,298.3 785.4,280.7 773.7,294.6 737.7,299.2 736.3,307.6 731.8,305.7 
					729.8,309.5 729.7,312 730.4,319.7 727.3,319.8 				"/>
				<polygon id="polygon321_9_" class="st1" points="752.7,418.8 736.3,417.4 733.9,419.7 742,422.8 727.7,423.2 725.2,427.9 
					729.7,432.1 				"/>
				<polygon id="polygon323_9_" class="st1" points="712.7,428.6 703.8,428.1 698,429.9 706.9,435.9 				"/>
				<polygon id="polygon325_9_" class="st1" points="716.7,431.3 723.9,431.5 723.4,424.5 718.1,425.3 				"/>
				<polygon id="polygon327_9_" class="st1" points="758.7,187.8 763,196.8 755,199.2 755.8,204.5 751.2,205.1 745.4,214.9 
					746.1,209.1 739.9,207 729.4,219.7 728.7,230.3 732.2,231.6 734.5,220.6 744.5,222.3 746.6,216.1 754.7,219.2 755.9,230.8 
					768.1,234.2 770.1,230.4 773.3,235.8 775.6,230.3 769.3,222.7 771,215 780.3,224.9 777.4,217.9 781.2,211.9 774,199 
					770.2,199.4 769.2,190.9 				"/>
				<polygon id="polygon329_9_" class="st1" points="819.7,294.1 830.9,299.4 824.3,293.5 820.2,285.2 832.7,284.6 822,280.7 
					826.9,276 825.9,269.9 815.7,281 818.8,275.3 814.9,265.3 812.4,280.4 				"/>
				<polygon id="polygon331_9_" class="st1" points="833.3,325.7 834.2,331.1 835.3,324.4 				"/>
				<polygon id="polygon333_9_" class="st1" points="835.3,324.3 835.3,324.4 835.3,324.4 				"/>
				<polygon id="polygon335_9_" class="st1" points="856.1,322 868,324.7 859.1,316.3 843.9,318.6 835.3,324.4 839.8,328.6 				"/>
				<polygon id="polygon337_9_" class="st1" points="783.1,367.3 782.4,357.2 781,365.6 782,374 787,366.9 				"/>
				<polygon id="polygon339_9_" class="st1" points="780.4,371.3 780.3,365.8 779,361.4 775.8,364 776.5,371.7 				"/>
				<polygon id="polygon341_9_" class="st1" points="827.8,307.5 823.5,306.5 821.7,311 830.6,309.1 				"/>
				<polygon id="polygon343_9_" class="st1" points="817.3,395.9 817.4,393.5 811.5,395.2 810.3,398.8 				"/>
				<polygon id="polygon345_9_" class="st1" points="820.2,329.7 811.4,334.8 821.4,338.9 827.1,334 				"/>
				<polygon id="polygon347_9_" class="st1" points="819.7,302 824.6,299.7 819.4,295.8 816.2,298.3 				"/>
				<polygon id="polygon349_9_" class="st1" points="808.9,396.9 805.7,399.4 808.5,400.9 				"/>
				<polygon id="polygon351_9_" class="st1" points="825.8,384.5 824.9,389.6 835.7,383.1 				"/>
				<polygon id="polygon353_9_" class="st1" points="769.2,321.4 771,324.8 771.7,324.6 776.9,320.7 				"/>
				<polygon id="polygon355_9_" class="st1" points="819.9,258.2 819.2,266.4 821.7,264 				"/>
				<polygon id="polygon357_9_" class="st1" points="731.8,238.1 735.5,234.6 731.4,234.2 				"/>
				<polygon id="polygon359_9_" class="st1" points="788.9,321 788.8,325.8 799,320.3 				"/>
				<polygon id="polygon361_9_" class="st1" points="918.5,338.8 914.9,329.5 910.9,334.7 913.2,337.2 915.1,348.6 				"/>
				<polygon id="polygon363_9_" class="st1" points="960.1,342 956.4,353.5 960.8,352.2 969.8,345.4 969.5,339.2 				"/>
				<polygon id="polygon365_9_" class="st1" points="907,272.3 916,275.9 919.4,274 				"/>
				<polygon id="polygon367_9_" class="st1" points="855.8,305.4 855.4,301.5 848.8,305.9 				"/>
				<polygon id="polygon369_9_" class="st1" points="927.7,280.3 911,283 918.5,283.9 				"/>
				<polygon id="polygon371_9_" class="st1" points="860.3,280.9 848.8,285.2 858,284 				"/>
				<line id="line375_9_" class="st1" x1="72.3" y1="79.4" x2="72.1" y2="79.9"/>
				<line id="line377_9_" class="st1" x1="72.1" y1="79.9" x2="71.3" y2="81.3"/>
				<polyline id="polyline397_9_" class="st1" points="44.1,333.3 44.3,332.2 43.9,330.7 				"/>
				<polyline id="polyline399_9_" class="st1" points="49.1,157.3 48.9,156.5 49.6,156.3 				"/>
				<line id="line401_9_" class="st1" x1="43.9" y1="328.3" x2="43.9" y2="330.7"/>
				<polyline id="polyline403_9_" class="st1" points="49.6,156.3 49.4,155.6 49.9,154.6 49.7,153.9 50.4,153.7 				"/>
				<polygon id="polygon425_9_" class="st1" points="281.1,330.9 279.1,332.3 278.4,332.5 279.3,333 283.6,334.1 280.5,334.2 
					280.4,339.1 281.7,353.8 280.1,351.1 285.7,364.5 290.7,375.7 300.3,370.4 302.5,359.4 294.5,343.5 				"/>
				<polygon id="polygon431_9_" class="st1" points="68.3,97.3 70.8,92.6 66.5,99.5 65.2,105.4 67,100.9 				"/>
				<polygon id="polygon461_9_" class="st1" points="666.6,34.4 661.3,32.8 652.1,54.7 653.1,60.8 665.4,69.7 				"/>
				<polygon id="polygon539_9_" class="st1" points="51.8,145.3 52.1,146 52.3,144.4 				"/>
				<polygon id="polygon541_9_" class="st1" points="52.1,146 51.3,148.7 52,146.5 				"/>
				<polygon id="polygon543_9_" class="st1" points="57.7,125.2 58.7,120.9 56.9,127.9 55.7,132.3 56.3,131.2 				"/>
				<polygon id="polygon553_9_" class="st1" points="55.7,132.3 54.8,134.1 53.9,139.1 52.9,141 52.3,144.4 52.8,143.4 				"/>
				<polygon id="polygon561_9_" class="st1" points="43.5,326.9 45.2,327.2 43.3,323.8 				"/>
				<polygon id="polygon563_9_" class="st1" points="567.4,126.7 565.5,123.3 547.6,129.5 543.2,138.8 549,147.4 556.2,147.6 
					563.4,139.8 				"/>
				<polygon id="polygon571_9_" class="st1" points="91.7,352 95.3,353.3 97.6,350.2 				"/>
				<polygon id="polygon581_9_" class="st1" points="103.3,183.7 106.3,180.4 107,180.2 108.6,177.4 				"/>
				<line id="line591_9_" class="st1" x1="87.5" y1="40.5" x2="88.1" y2="39.6"/>
				<line id="line593_9_" class="st1" x1="460" y1="275.6" x2="460.2" y2="276.3"/>
				<polygon id="polygon595_9_" class="st1" points="670.6,232.9 678.3,224.2 683.2,209.1 684.5,208 692.1,199.3 686.1,190 
					688.6,198 684.8,195.9 687.3,201.5 683,208.4 				"/>
				<polygon id="polygon597_9_" class="st1" points="673.6,133.3 673.7,138.8 679.5,147.4 681.4,150.8 686.8,153.1 686.2,148.5 
					691.3,149.4 690.3,159.2 699.2,159.7 703,153.8 715.1,159.7 711.7,151.1 723.8,159.4 731,157.2 734.1,161.8 733,155.8 
					727.9,157.3 724,152.2 728.6,149.2 724.8,147.1 718.5,147.5 718.4,152.3 712.8,146.8 707.2,149.3 708.3,153 700,149.1 
					693.9,139.8 700.5,119.5 693.7,110.5 693.2,103.5 674.5,107.5 680.3,134.4 675.3,133.6 				"/>
				<polygon id="polygon599_9_" class="st1" points="395.9,266.5 394.6,259.7 392.8,264.2 				"/>
				<path id="path601_9_" class="st1" d="M404.4,216.1l-1.4,6l2-3.8l4,2.8l0.9-5l4.2,3.5l1.1-6.7l6.1-3.5l-2.8-3.9l4,2.8l3.3-5
					l-1.7-8.2l7.2,10.5l4.1-2.1l4.1,18.6l6.8,14.6l-0.1-5.5l7.6,12L455,254l4.3,1.1l-2.3,13.4l2.9,7.1l1.1-4.3l0.4,3.9l1.1,21.9
					l3-3.3l19.8,15.4l1.2,1.2l12.1,24.2l12.4,14.5l29.6,10.9l3.8-5.9l4.7,2.5l-13.8-14.1l-5.3-19.9l-6.5-8.4l-21.9-11.6l-13.5,0.1
					l-9.2-17.1l-3.2-5.4l-6.6,2l-2.7-8.7l-1.1-3.6l4.2-22.8l0.5-0.9l-1.3-4.4l-2.7-8.7l0.7-0.2l9.8-4.6l0.7,10.1l10-3.8l10.5,3.2
					l8.8,13.2l4.2-4.5l2.2,7.3l2.2-3.1l15.5,4l-0.4,14.4l6-1l8.2-9.7l-5.9-6.2l8.8,2.9l-4.5-4.2l-1.4-2l2.8,1.5l3.6,1.3l-2.1-1.7
					l-2.1-1.7l4.8,0.1l-4.5-1.8l3.9-0.4l-1.1-3.6l6.5,0.4l16.3-16.9l-2.3-15.2l2.9-0.9l-13.2-27.8l-8.7-7.7l-14.8-4.2l-21.4-18.1
					l0.5-11.3l5.9-6.6l-1.6-5.1l3.1-0.2l-3.5-3.7l8.2-1.7l3.7-7.5l6.9-2.1l-0.4-3.9l7.4,3.3l4-5.2l4.5,1.8l-1.9,6.9l4.6,7.3l4.1-2.1
					l-2.3-12.8l1.4,2l11.5-6.7l-0.2-3.1l7.5-1.5l-0.9-2.9l6.3-0.3l-1.5-7.5l2.8,3.9l1.3-3.6l2.9,1.5l-4.6-9.7l12.3,6.6l-1.6-2.7
					l5.4-5.6l1.8,3.4l3-5.7l3.8,2l8.6-5.8l1.8-4.5l-3.6-1.3l7.6-3.9l0.3-4.1l3.1,2.2l4-7.6l-4.5-1.8l9.5-2.9l-2.8-3.9l4.6-0.6
					l-1.8-3.4l4.6-0.6l-1.6-5.1l4.5,1.8l-3.7-6.8l3.5-4.2l-3.9,0.4l2-1.4l-4-2.8l5.5-0.1l0.9,0.5l3.3-15.3L641.5,7L652,2.2l-4.2-3.5
					l3-3.3l-3.6-1.3l4.9-2.3l-1.1-3.6L646-9.5l5.2-6.4l-2.4-0.1l-7.7-1.6l-10.5,4.8L646-25.4l-14.3-5.2l-7,0.5l18.1-3.1l-12.6-4.9
					l-10.9-15l-3.1,0.2l-8.2-0.7l-0.9-2.9l5.3-8.8l2.2-3.1l-2.1-1.7l5.3-0.8l-0.8-5.3l9.8-7l5.5-0.1l-0.1-5.5l-19.3,1.9l-5.7,4.9
					l-6.2,5.9l-6.7-9.1l-10.6,1.6l-1.3-6.8l10.7-4.1l6.5-9.9l6.5-9.9l6.8-3.7l5.2,4l-5.1,11.9l5.8-1.8l-4.8,7.8l17.8-17.4l17.4-2.9
					l-0.7,8.2l5,0.9l-5.8,1.8l-0.9,5l6-1l-2.5,2.3l5.1-1.6l0.3-1.7l9.6,0.2l6.3,7.6l-4.3-1.1l-2.2,3.1l4,2.8l0.1-2.4l1.3,4.4
					l3.6-1.1l-2,11.7l5.7,3l-3.6,1.1l3.8,2l4.5-6.1l2.3,2.5l0.3-4.1l3.6,1.3l-2.6-3.2l7.9,0l-0.6-4.6l5.5-0.1l0.2-9.6l-5.8-8.6
					l-15.6-12l-10.8-1.5l-0.8-5.3l14.6-14.8L678-145l5.2-6.4l-1.8-3.4l5.5-0.1l0.7-8.2l13.4,2.3l13.1-11.9l9.1-27.5l2-19.7l0.3-4.1
					l-6.1-6.9l-3.7-4.4l-0.2-11.1l-11.7-4.4l4.6-0.6l-0.7-2.2l-13.2-1.5l-2.6-0.8l-6.6,2l0.7,2.2l-5.7,4.9l-0.8-5.3l-4,5.2l-4-5.2
					l-6.3,2.7l-4.3-1.1l10.7-14.4l4.3-9.3l4.2-12.4l15.6-6.3l4.1,0.3l0.3-1.7l14.1-3.5l-1.6-2.7l18.4-2.4l-5.6,2.5l3.4,0.6l16.1-7.3
					l-3.4-0.6l-3.6,1.1l-2.8-1.5l-1.4-9.9l11-5.7l0.5-0.9l2.3,2.5l1.2,1.2l2.6,0.8l0.7-0.2l1.2-1.2l3.1,2.2l-0.5-7l3.6-1.1l-7.9-2.4
					l4.1-2.1l3.9-0.4l-2.5,2.3l11.9,5.1l-4.4,3.7l3.2,7.8l1.3,6.8l-5.4,3.2l4.4,6.6l9.4,7.5l39,20.8l-0.9-10.9l-5.9-3.8l7.1-2.9
					l0.7-0.2l-6.7-3.5l-2.8-1.5l0.7-0.2l5.2-6.4l-11.4-6.1l4.9-2.3l-13.1-4l-0.7-2.2l-8.5,1l-9.6-10.6l2.7-1.6l4.3,1.1l-1.3-4.4
					l6.2,2.1l-2.3-2.5l6.1-3.5l10.6,0.8l-4.5-1.8l-2.9-7.1l3-5.7l7.5-1.5l-2.8-1.5l-21.6-3l2.6,0.8l-7.4-0.9l-1,1.9l-1.9-1l-2.9,0.9
					l10-3.8l-1.9-1l-2.8-1.5l-9.1-1.2l2.2-0.7l9.3,1.9l3.4-1.8l10.6,0.8l8,0l-2.6-0.8l5,0.9l-0.4-1.5l-5.5,0.1l-1.9-1l-4.3-1.1
					l-3.9,0.4l5.3-0.8l-4.1-0.3l3.1-0.2l-4.3-1.1l-12-0.3l-5.3,0.8l-0.7,0.2l10.8,1.5l-18.7-1.4l-23.6,0.8l-17.1,1.2l-4.9,2.3
					l-6.8,1.3l-2.2,0.7l3.4,0.6l7.9,0l0.4,1.5l-9.2,1.2l-6.5-0.4l0.2,0.7l-14.8,3.7l0.7,2.2l-9.6-0.3l-0.9-0.5l-9.6-0.2l-10.4,2.4
					l-8.3,4.1l-17.9,1.5l2.7-1.6l-8.5,1l-3.6,1.1l-0.6,3.4l-3.8-2l4.1,0.3l0.3-1.7l-0.7,0.2l-21.8,4.2l3.4,0.6l-3.4,1.8l-2,1.4
					l2.7-1.6l0.7-0.2l-0.5,0.9l-1.2,1.2l4.8,0.1l-0.9-0.5l1.9,1l-0.7,0.2l-6.8,1.3l1.2,1.2l-8.5,1l-7.1,2.9l-5.8-0.6l-1.4,6
					l-14.7-1.1l4.1-2.1l-4.8-0.1l2.9-0.9l-3.6-1.3l-8.7,2.7l-7.2-0.2l-3.3,5l-9.7,2.2l-0.7,0.2l-4.6,0.6l1.2-1.2l-10.4,2.4l-6.8,3.7
					l-2.3-2.5l-1.7,2.1l-1.9-1l-5.1,1.6l-1,1.9l3.6-1.1l-15.6,6.3l3.2-2.6l21-12l-3.4-0.6l3.1-0.2l1.2-1.2l-7.4-0.9l-12.2,4.5
					l3.2-2.6l-8,2.4l5.6-2.5l-4.8-0.1l-8.1,4.8l-1.7,2.1l-2.9,0.9l-2.9,0.9l1.2,1.2l-1.7-0.3l-10,3.8l2-1.4l-6.5,2l-2,1.4l2.9-0.9
					l-21.2,8.8l-2.5,2.3l-1.7-0.3L430-285l-19.4,6.7l-5.4,5.6l3.8,2l-8.9,9.9l-1.2,1.2l-0.9-0.5l-0.2-0.7l4.9-4.7l-4.7,3l10.3-7.9
					l-5.8,1.8l-1.9-1l-2.6-0.8l-3.4,1.8l-1,1.9l-5.1,1.6l1.1,3.6l-4.8-0.1l7-8.5l-3.7,3.5l-10,6.2l-2,3.8l-4.4,3.7l-6.2,5.9l7.3-2.2
					l2.6,0.8l-2,3.8l-4.4,3.7l2.4,0.1l-3.9,0.4l5.5-8l-7.1,2.9l-6.5,7.5l-17.7,12.5l-6.5-0.4l10-3.8l15.3-12.6l0.1-2.4l7.4-7
					l6.4-5.1l0.8-2.6l10.8-8.9l-0.9-0.5l-2.9,0.9l-2.2,0.7l-12.3,9.3l-6.8,3.7l-8.1,7.3l-3,3.3l2.9-0.9l-0.8,2.6l-8.4,6.5l0.1-4.8
					l0.7-0.2l-6.2-2.1l-3.9,2.8l-3.5,4.2l-3.4,1.8l-3.2,2.6l3.5-4.2l-7.3,4.6l-3.6,1.1l-3.9,2.8l-3.1,0.2l1.7-2.1l-11.5,6.7
					l-1.7,2.1l-2.2,0.7l-6.4,5.1l-2.9,0.9l4.2-4.5l5.4-3.2l2.5-2.3l1.5-2.8l-2.5,2.3l-20.9,17.5l3-3.3l-5.9,4.2l-4.7,3l-1,1.9
					l-2,1.4l-1.2,1.2l-4.2,4.5l-0.2-0.7l0.5-0.9l-2,1.4l2.5-2.3l1-1.9l-3.7,3.5l-2.2,3.1l-4.9,4.7l4.5-6.1l7.4-7l4.4-3.7l2.5-2.3
					l2-1.4l6.2-5.9l-5.7,7.3l4.7-3l6.4-5.1l2.2-2.3l0.4-0.5l1.8-1.8l2.2-2.3l1.5-0.4l7.2-7.8l-3.9,2.8l4.4-3.7l3.2-2.6l-2,1.4
					l-1.5,0.4l-3.7,3.5l-0.5,0.2l4.2-3.7l-5.2,4l-4.9,4.7l-1.5,0.4l-2,1.4l-1.2,1.2l-0.5,0.9l-0.9,0.9l-0.5,0.3l-1.3,0.4l-6.2,5.9
					l-1.5,0.4l-6.2,5.9l-0.7,0.2l-2.5,2.3l2-1.4l-1.2,1.2l-0.7,0.2l-0.7,0.2l-6.2,5.9L257-195l-3,2.8l1.7-1.5l-2.5,2.3l-0.3,0.1
					l-11.6,10.7l-11.6,11.5l-7.4,7l-1.7,2.1l1.2-1.2l-3,3.3l1.2-1.2l-4.2,4.5l2.4-2.7l-4.3,4.1l-3,3.3l0.5-0.1l-1,1.1l-7.2,7.8
					l-7.4,8.2l3.2-3.8l-1.2,1.2l-2.5,3.2l-1,1.1l-1.7,2.1l2.4-2.8l-4.7,5.9l-5.7,7.3l-5.7,7.3l-0.1-0.4l-0.6,0.6l-1,1.9l-2.5,2.3
					l-1.5,2.8l-2.5,2.3l-1.5,2.8l-1.2,1.2l-1,1.9l-2.5,2.3l-1.5,2.9l-2.5,2.3l-0.3,1.7l-2.5,2.3l-1.5,2.8l-1.2,1.2l-2.5,4.7
					l-2.5,2.3l-0.3,1.7l-2.5,2.3l-0.3,1.7l-1.2,1.2l-1,1.9l-1.2,1.2l-0.1,0.8l-0.4,0.1l0.2,0.7l-0.7,0.2l0.1,0.4l-1.9,1.8l-0.3,1.7
					l-1.2,1.2l-1,1.9l-1.2,1.2l-0.3,1.7l-1.2,1.2l-2.5,4.7l-1.2,1.2l-0.3,1.7l-1.2,1.2l-2.5,4.7l-1.2,1.2l-0.3,1.7l-1.2,1.2l-4,7.6
					l2.8-4l-1.8,4.5l-0.2-0.7l-1.5,2.9l0.4,1.5l-2.2,3.1l-3,4.6l-4,8.7l-1,1.9l7-8.5l1.7-2.1l-1.5,0.5l-0.4,0.9l-0.2-0.7l2.8-6.4
					l4.5-6.1l-3,4.6l0,0.1l4.3-5.9l7.4-7l-4.5,6.1l-0.9-0.5l-2.6,7.2l0.8-2.6l-5.8,9.7l-2.5,2.3l-4.3,17.2l-1.1,6.7l-4.1,10
					l-2.5,4.7l-4.7,5.4l-2.9,0.9l-0.9-2.9l2.9-8.8l-2.2,0.7l-5.6,10.5l0.1-0.5l2.3-5.5l-0.8,0.7l-0.3,1.7l-1.5,2.8l-1,1.9l-1.5,2.8
					L86,43.4l2-3.8L85.8,45l-0.6,1.5l-1.3,2.8l-0.2-0.5l-4.1,10l-0.8,2.6L78.7,62l-0.2,1.1l-1,1.9l-4.4,11.7l1-1.9l-1.3,3.6
					l-0.5,0.9l-0.6,1.8l-2.3,7.1l0.5-0.9l2.6-7.2l-2.2,8.6l1.7-2.1l2.8-6.4l-0.8,2.6l2.2-3.1L71.2,94l-3.7,11.5l-11.8,37l-3,3.3
					l1.6-5.3l-0.2-0.7l-2.2,6.6l-0.2,1.3l-0.5,0.9l-0.3,1.7l-1,1.9l0.4,1.5l-0.3,1.7l-0.5,0.9l-0.5,0.9l-1.4,8.4l-1,1.9L44.4,181
					l-1,1.9l-1.7,10.1l-0.1,2.4l-2.8,16.8l-0.1,2.4L36.5,228l-0.1,2.4l-1.4,8.4l0.4,1.5l-0.1,2.4l-1.7,10.1l-0.1,2.4l0.4,1.5
					l-1.1,6.7l-0.1,2.4l0.4,1.5l-1.1,6.7l-0.1,2.4l0.4,1.5l-0.9,5l0.7,2.2l-0.9,5l0.4,1.5l-0.1,2.4l-0.6,3.4l0.4,1.5l-0.3,1.7
					l-0.1,2.4l-0.3,1.7l0.4,1.5l-0.3,1.7l-0.1,2.4l0.4,1.5l-0.6,3.4l0.7,2.2l-0.6,3.4l0.4,1.5l-0.3,1.7l-0.1,2.4l0.4,1.5l-0.6,3.4
					l0.7,2.2l-0.3,1.7L32,336l-0.3,1.7l-0.1,2.4l0.4,1.5l-0.3,1.7l0.4,1.5l-0.1,2.4l0.4,1.5l-0.3,1.7l-0.1,2.4l0.4,1.5l-0.3,1.7
					l0.4,1.5l-0.1,2.4l0.4,1.5l-0.3,1.7l0.4,1.5l-0.1,2.4l0.4,1.5l-0.3,1.7l0.7,2.2l-0.3,1.7l0.4,1.5l-0.3,1.7l0.7,2.2l-0.3,1.7
					l0.4,1.5l-0.1,2.4l0.9,2.9l-0.3,1.7l0.7,2.2l-0.3,1.7l0.9,2.9l-0.1,2.4l0.4,1.5l-0.3,1.7l0.9,2.9l-0.1,2.4l0.9,2.9l-0.3,1.7
					l0.9,2.9l-0.1,2.4l0.9,2.9l-0.3,1.7l1.6,5.1l-0.3,1.7l0.9,2.9l-0.1,2.4l1.3,4.4L43,440l1.3,4.4l-0.3,1.7l2,6.6l-0.3,1.7l2.7,8.7
					l-0.3,1.7l2.9,9.5l-0.3,1.7l3.1,10.2l0.3,1l0.8,5l6.7,21.8l0.2,0.7l1.6,5.1l4.4,14.6l0.8,0.9l0.8,1.8l1.1,3.6l2.7,8.7l1.2,1.2
					l3.1,10.2l0.4,0.4l1.9,4.7l0.8,2.7l0.7,1l1.5,3.6l1.2,3.9l0.7,0.8l1.1,2.6l0.7,2.2l0.2,0.7l0.3,0.3l1.3,2.5l-0.9-2.2l0.5,0.6
					l0.7,2.2l-0.3-0.6l0.4,1l0.3,1.1l0.2,0.2l2.3,5.4l0.2,0.7l0.3,0.3l1.7,3.6l0.3,1l0.3,0.3l1.6,3.3l0.4,1.2l0.4,0.4l1.4,3l0.2,0.7
					l0.2,0.7l2.1,4.1l0.2,0.7l0.2,0.2l1.8,3.9l1.4,2l0.4,1.5l1.2,1.2l0.2,0.7l0.9,2.9l1.2,1.2l0.4,1.5l1.4,2l0.4,1.5l1.2,1.2
					l0.2,0.7l-1.4-2l1.6,2.7l0.2,0.7l0.6,0.6l0.8,1.3l0.7,2.2l1.4,2l0.4,1.5l1.2,1.2l0.7,2.2l1.2,1.2l0.4,1.5l1.2,1.2l0.7,2.2
					l1.2,1.2l0.4,1.5l1.4,2l1.2,1.2l0.4,1.5l1.2,1.2l0.7,2.2l1.2,1.2l0.4,1.5l1.2,1.2l1.4,2l0.4,1.5l1.2,1.2l0.7,2.2l2.3,2.5
					l0.4,1.5l1.4,2l0.4,1.5l2.3,2.5l0.7,2.2l2.3,2.5l0.4,1.5l1.2,1.2l1.4,2l0.4,1.5l2.3,2.5l0.7,2.2l2.3,2.5l0.4,1.5l1.4,2l2.3,2.5
					l0.4,1.5l1.2,1.2l1.4,2l1.2,1.2l0.4,1.5l2.3,2.5l1.4,2l0.4,1.5l3.5,3.7l1.4,2l0.4,1.5l3.5,3.7l1.4,2l1.2,1.2l0.4,1.5l3.5,3.7
					l1.4,2l3.5,3.7l0.4,1.5l1.2,1.2l1.4,2l7,7.4l1.4,2l4.7,4.9l0.4,1.4l2.3,2.5l1.4,2l10.5,11.1l2.1,1.7l14.1,14.8l1.9,1l2.3,2.5
					l1.4,2l4.7,4.9l1.9,1l4.7,4.9l1.2,1.2l0.9,0.5l2.3,2.5l1.2,0.6l-7-6.8l-4.5-4.2l-7-7.4l-20.1-21.7l1.4,2l-3.1-2.2l-11.6-17.2
					l-15-17.7l-12.6-15.3l-5.3-6.8l-4.4-9.3l-6.2-10l-3.9-15.5l-1.6-2.7l-6.6-13.9l-13-19.1l0.1-2.4l-9.2-14.7l-2.9-7.1l-3.7-4.4
					l-1.4-2l-0.7,0.2l-9.6-18.6l-2.3-4.9l-3.6-9.2l-6.2-10L90.3,564l-4.8-18.4l-1.3-4.4l0.6-5.8L83,532l1.7,0.3l-4.2-32.1l3-21.6
					l0.9-25.7l0.4-61.4l-0.5-7l-0.2-3.1l1.7-2.1l-1.5,0.4l-0.5-17.4l-2.6-0.8l-4.6,8.6L69,374l-2.6,7.2l-2.8-1.5l-2.8,6.4l-5.7-13.4
					l-2,1.4l2.1-6.2l-0.8-5.3l-7.5-24.7l-2.6-3.2l-0.1-1.3l-0.3-2.6l-0.1,2.4l-3.4-34.8l-1.2-9.2l1-28.1l-0.3,1.7l0.5-11.3
					l-0.7-10.1l1-12.3l0.2,0.7l0.2-7.2l4.9-38.9l1.5-13.2l2.9-11.2l-3.1,16.1l-1.2,9.1l4.9-20.6l-3.8,16.3l0.9,0.5L45,214.2
					l-1.2,9.1l1.3,6.8l-0.7,16.1l-0.9,15.4l1,8.5l1.5,7.5l4.2,34.5l-0.2,17.6l4.5,30.5l4.9-2.3l1.6-7.7l10.2-11.1l1.6-7.7l11.5-14.6
					l0.8-10.6l11.3-9.8l1.7-10.1l4.9-2.3l2.2-11l5.2-4l0.2-15.2l1.8-4.5l2.1,1.7l7.3-22.9l-4.9-13.6l-7.4-3.3l-2.5-5.6l-0.6-12.5
					l2.2-8.6l-13.5,28.8l-6.8,1.3l-2,3.8l-2.8-3.9l2.9-19.2l-2.4-0.1l-2.6,15.1l-1.1-14l1.6-7.7l-3.1-10.2l1.2-19.5l-0.9-0.5
					l1.7-2.1l0.1-4.8l0.5-0.9l3.1-0.2l1.1-4.3l1.1,3.6l2.5-2.3l-0.3,1.7l-0.1,23.1l3.8,2l3.6,9.2l4.3,1.1l10.4-10.3l0.8,15.7
					l13.2,1.5l9.8,1l28.8-15.1l0.3,8.7l4.6-0.6l0.5,9.4l1.5-0.4l2.2-0.7l2.2-0.7l-0.9,5l4-5.2l-2.5,4.8l4.4,6.6l9.2-3.6l-2.3,5.5
					l-8.1,4.8l13.3,15l9.4-8.4l0.6-13.7l4.6-0.6l-2.8,4l0.4,3.9l2.9-0.9l-2.5,4.7l2.5,5.6l-1.3,11.5l9,42.6l26.8,51.5l4.7,12.9
					l5.2,11.9l10.2,7.2l4-5.2l0-7.9l7.9-5.6l-2.8-1.5l1.1-6.7l0.6-3.4l5.1-1.6l-3.9-15.5l0.5-8.9l1.3-11.5l-5.5-20.6l0.9-7.4
					l5.8-1.8l2.4-7.9l8.6-5.8l-0.8-5.3l14.7-19.6l6.6-14.8l11.3-9.8l5.6-10.5l-2-6.6l7.4-7l2.1-6.2l2,6.6l3.5-6.6l3.7,4.4l-0.1-5.5
					l1.8,3.4l2.5-4.7l3.1,2.2l0.2-7.2l3.5,6.1l1.7-10.1l2,6.6l1.7-2.1l-2-6.6l7.3-2.2l9.4,15.2l0,0.1l1,1.5l5.4,8.7l2.3-5.5l0.1,5.5
					l7.9,0l3.2,5.4l-5.1,1.6l5.4,4.7l0.4-6.5l8.4,19.7l-0.5,19.2L404.4,216.1z M89.5,589l0.6,0.6l0.4,1.5L89.5,589z M99.1,609.9
					l0.1,0.1l0.9,1.9L99.1,609.9z M102.7,617.6l-1.1-2.6l0.4,0.5L102.7,617.6z M690.8-343l-1.5,0.4l-0.7,0.2l-0.2-0.7L690.8-343z
					 M87.5,40.5l0.5-0.9L87.5,40.5z M75.4,71.3l1.2-2.7l-0.6,1.8L75.4,71.3z"/>
				<polygon id="polygon603_9_" class="st1" points="419.4,327.7 420.9,324.9 417.3,323.6 				"/>
				<polygon id="polygon605_9_" class="st1" points="695.4,168 701.4,174.9 704.4,174.1 703.7,163.9 688.5,163.8 				"/>
				<polygon id="polygon617_9_" class="st1" points="1027.8,319 1030.6,322.9 1043.4,323 1063.6,339.9 1064.8,341.1 1085.1,337.3 
					1090.8,340.4 1095.6,332.6 1087.2,333.5 1086.2,333 1083.4,331.5 1086.3,328.2 1078.6,329 1077.1,323.9 1071.5,326.4 
					1063.5,316.1 1052.8,312.2 1048.2,304.8 1057.2,300.5 1053.2,295.3 1032.8,293.6 1031.3,286.1 1015.4,278.2 962.8,275.2 
					937.5,273.3 929.9,279.6 931.7,283 923.4,287.1 920,299.3 913.6,304.5 905.4,295.8 904.5,300.9 899.8,295.9 892.1,278.4 
					874,279.1 861.8,288.4 861.2,294.6 860,290.6 855.9,292.6 861.2,294.9 861.1,296.6 872.9,293.8 879.2,301.4 896.8,293.7 
					895.4,302.1 889.9,299.8 885.4,305.9 876.6,308.6 888.6,311.3 891.3,320 897.2,315.8 897.5,303.8 897.3,311 903,314.1 
					913.4,311.7 910.4,315 918.1,316.6 952.5,317.3 953.1,321.9 956.5,320 958.7,327.3 965.6,331.6 962.4,334.2 970.4,334.1 
					964,336.8 970.2,338.9 970.5,347.6 980.5,341.4 981.2,341.2 991.4,348.7 995.7,351.9 1006.7,346.1 1011.9,347.7 1017.9,338.7 
					1004.3,335.7 1019.8,331.8 1016,329.8 1021.1,328.2 1017.1,323.1 1027.2,324.8 1024.4,320.8 1026.8,323.3 				"/>
				<polygon id="polygon619_9_" class="st1" points="1172.9,296.3 1173.1,299.4 1176.4,300 1184.4,300 1176.5,297.6 				"/>
				<polygon id="polygon621_9_" class="st1" points="1092,258.1 1085.9,261.5 1089.6,268.3 1083.8,278.1 1075.8,280.5 1074.7,274.5 
					1073.6,281.2 1058.5,286.6 1073.4,290.8 1087,283.5 1095,273.1 1092.2,269.1 1095.1,260.3 				"/>
				<polygon id="polygon623_9_" class="st1" points="1130.5,279.8 1134.6,277.7 1119,265.7 1124.1,274.5 				"/>
				<polygon id="polygon625_9_" class="st1" points="1100,255.6 1099.3,255.8 1092,252.6 1100.5,265 				"/>
				<polygon id="polygon627_9_" class="st1" points="1073.6,244.6 1092,252.6 1091.9,252.5 				"/>
				<polygon id="polygon629_9_" class="st1" points="1035.3,252.2 1039,248.7 1030,253.1 				"/>
				<polygon id="polygon631_9_" class="st1" points="1150.4,280 1138.3,274.2 1145.1,280.9 				"/>
				<polygon id="polygon633_9_" class="st1" points="1149.4,292.3 1155.6,294.4 1150.5,288 				"/>
				<polygon id="polygon635_9_" class="st1" points="1173.6,288.1 1158.2,279.3 1164.5,284.5 				"/>
				<polygon id="polygon637_9_" class="st1" points="1188.1,296.4 1178.5,283.4 1184.5,292.7 				"/>
				<polygon id="polygon641_9_" class="st1" points="1237.7,341.8 1238.1,345.6 1240.3,352.9 1243.5,350.4 				"/>
				<polygon id="polygon645_9_" class="st1" points="1243.1,356.9 1245.4,361.7 1248.3,360.8 1245,355.5 				"/>
				<polygon id="polygon647_9_" class="st1" points="1195.7,308.4 1199.3,307.3 1188.6,303.4 				"/>
				<polygon id="polygon649_9_" class="st1" points="1230.8,423.5 1245.5,430.1 1222.9,410.7 				"/>
				<line id="line653_9_" class="st1" x1="765.6" y1="432.3" x2="765.6" y2="432.3"/>
				<line id="line655_9_" class="st1" x1="766.3" y1="432.1" x2="765.6" y2="432.3"/>
				<polygon id="polygon657_9_" class="st1" points="958.1,424.6 964.9,423.3 961.2,416.5 958.7,421.2 				"/>
				<polygon id="polygon659_9_" class="st1" points="1124.6,487.7 1115.7,484.8 1113.4,472 1113.8,475.8 1107.7,471.3 1108.7,477.4 
					1106.4,474.9 1104.9,477.8 1094.4,453.9 1068.8,445.8 1062.2,423.9 1055.5,420.4 1052.1,403.9 1042.2,397.4 1035.8,402.5 
					1029.7,385.3 1014.4,363.7 1011.1,368.6 1013,380 1009.2,388.3 1013,388 1010.7,403.8 1016.1,416.5 1010.2,449.3 1004.2,450.3 
					999.6,450.9 993.2,445.7 966.1,442.8 950.4,435.7 954,418.7 951.4,415.5 957.7,412.8 956.2,407.7 960.5,400.8 954.5,397 
					950.9,406.1 950.1,400.8 946.2,403.6 948.2,399.8 941.5,406.6 935.8,403.5 930.2,408.4 925.7,404.2 921.8,407 903.3,403.9 
					901.8,406.7 912.9,406.5 914.6,412.4 900.7,419 898.4,416.5 894.4,421.7 896.8,424.2 891.5,422.6 894.1,425.8 890.2,426.2 
					891.9,434.4 886.5,437.7 884.3,448.7 892,450.3 889.4,457.5 884.6,454.9 883.8,460 882.5,455.6 876.2,455.9 873.7,460.7 
					876.4,464.6 872.8,462.7 872.5,457 861.9,450.7 854.7,450.5 853.5,457.3 851.7,453.8 849.1,458.6 845.9,455.6 847.6,463.8 
					842.4,459.9 839.1,467.2 844.2,471.2 836.7,472.7 842.7,476.5 835.7,474.6 833.4,480.1 836,483.3 837.5,480.4 835.6,487.4 
					842.4,486.1 836.5,490.3 825.7,488.8 826.6,494.1 832.3,494.7 833.6,499.1 828.6,498.3 830.6,504.8 819.8,493 814,505.1 
					819.1,513.9 809.9,533.4 798.2,539.4 789.4,544.4 773.8,558.7 766.4,557.8 748,578.5 747.3,586.7 741.7,581.3 744.6,609 
					760,625.8 754.6,623.5 754.1,626.5 756.6,630 747.9,627.9 776,652 780.1,660.3 782.4,665.1 795.3,676.3 797.9,689.9 792,694 
					795.7,700.9 812.2,703 824.8,700 839.7,683.5 841.1,683 873.9,673.1 878.5,662.1 893.8,649.5 941.6,626.2 971.6,628.2 
					971.3,632.2 977.3,633.6 986.4,645.2 982.7,646.3 990.4,647.9 989.8,643.3 1005,622.8 1004.9,617.2 1007.3,627.6 1003.2,635.2 
					1004,643 1000.4,644.1 999.3,648.4 1006.6,643.8 1009.1,633.5 1014,639.1 1010.4,648.2 1017.4,645.2 1022.9,647.6 1024.5,650.2 
					1023.3,649 1024.8,658.9 1027.1,661.4 1032.3,665.4 1057.1,665.8 1068.1,652.1 1069.7,654.8 1065.7,657.6 1072.8,654.6 
					1071.5,658.2 1078.4,660.1 1078.3,656.9 1088.6,647.8 1089.9,645.4 1108.5,635.8 1110.9,617.6 1117.1,609.3 1115,607.6 
					1120.7,592.3 1132.1,577.7 1130.5,575 1136.6,561.2 1139.4,549.2 1141.7,533.4 1137,520.5 1137.9,505.1 				"/>
				<polygon id="polygon661_9_" class="st1" points="885.8,411.6 883.7,417.8 890,415.1 				"/>
				<polygon id="polygon663_9_" class="st1" points="899.3,409.1 893.1,409.4 891.5,412.3 885.8,409.2 894.3,416.2 				"/>
				<polygon id="polygon665_9_" class="st1" points="1136.3,500 1137.2,502.9 1138.2,490.7 				"/>
				<polygon id="polygon765_9_" class="st1" points="819.9,399.1 817.3,402.1 817.3,402.1 815.4,404.4 811.2,409.5 811.2,409.5 
					806.5,415.1 806.3,419.9 806.7,423.8 806.8,423.7 806.8,424.1 812.5,421.4 817.2,416.6 821.3,412.2 821.3,412.2 843,388.8 				
					"/>
			</g>
		</g>
		<g id="Lakes_4_">
			<g>
				<polygon id="polygon1904_9_" class="st2" points="115.9,44.6 119.5,35.6 123.4,32.8 121.8,30.1 125.2,10 131.5,-3.1 128.8,0.9 
					132.5,-10.6 140,-22.4 144.1,-24.5 149.6,-32.5 158,-39 162.8,-38.9 162,-36.3 155.2,-24.7 155.9,-22.5 149.8,-21.4 
					146.1,-15.5 146.2,-12.4 142.9,-12.9 141.4,-10.1 141.8,-8.6 138.6,1.9 141.2,5.1 137.9,12.5 134.7,23 138.8,13 142,10.4 
					141.3,21 135.8,26.6 134.7,23 130.9,31.3 130.3,37.1 130.1,33.9 132.5,34 131.7,39 130.5,37.8 127.9,42.5 130.4,40.2 130.3,45 
					123,67.9 114.2,73 108.4,64.4 112.1,50.6 				"/>
				<polygon id="polygon1906_9_" class="st2" points="115.9,44.6 119.5,35.6 123.4,32.8 121.8,30.1 125.2,10 131.5,-3.1 128.8,0.9 
					132.5,-10.6 140,-22.4 144.1,-24.5 149.6,-32.5 158,-39 162.8,-38.9 162,-36.3 155.2,-24.7 155.9,-22.5 149.8,-21.4 
					146.1,-15.5 146.2,-12.4 142.9,-12.9 141.4,-10.1 141.8,-8.6 138.6,1.9 141.2,5.1 137.9,12.5 134.7,23 138.8,13 142,10.4 
					141.3,21 135.8,26.6 134.7,23 130.9,31.3 130.3,37.1 130.1,33.9 132.5,34 131.7,39 130.5,37.8 127.9,42.5 130.4,40.2 130.3,45 
					123,67.9 114.2,73 108.4,64.4 112.1,50.6 				"/>
			</g>
		</g>
		<g>
			<g>
				<g id="Borders_10_">
					<g>
						<path id="path1291_10_" class="st3" d="M460.3,136.1l-10,18.3 M343.6,171l-1.1,0.2 M531.8,115.6l-3.6-1.4l-0.2,0.6l0-0.6
							l-11.2,0.4l-0.4-8.9l-0.7-0.5l-10.5,1.7l-6.5-3.5l-0.7,0.1l-11.5,13.7l-6.4-1.1l-0.6,0.3l-2.3,4.4l-5.8-2l-0.7,0.4l-1.7,4.2
							l-5.7,1l-0.4,0.7l3.5,14.2l-4.3,0.7l-1.9-3.8l-0.6,0.3 M487.6,168.9l-3.2,5l-0.7,0.2l-6.8-2.5l-6.9,9.9l-0.4-0.4l0,0.6
							l-3.9,0.4l-0.6-0.6l-0.5-22.1l-7.4,2.3l-0.8-0.6l0.2-6.8l-5.1-0.5l-0.1,0l-0.7,0.2l-5.6,1.7l-3.7,8.1l-0.4,0.3l-8.6,1.9
							l-0.1,14.7l-0.4,0.5l-3.6,1.1l17.5,20.4l1.6-1.1l0.8,0.6l-4.4,16.2l12.6,10.9l0.1,0.2l10.5,21.4l0,0.4l-5.9,20.1l-0.4-0.1
							l0.4,0.3l-3.2,5 M522.5,252.2l5.4-7.8l12.8-1.5l0.4-0.9l-6.1-7.8l5.7-2.4l-0.2-0.5l0.6,0l0-2.1l9.9-8.5l0.2-0.6l-5.1-16.7
							l-0.4-1.3l0-0.1l-0.7,0.2l-0.4,0l-0.8-7.3l-4.6,4.7l-0.4,0.2l-6.8,0.5l-2.8,2.2l1.9,3.8l-0.6,0.8l-9.6-0.2l-0.5-0.6l-0.5-17
							l-11.3-6.7l-0.3-0.4l-1.6-10.4l-10.4-6.7l-6.6,0.4l-1.9,3.5 M467.6,123.5l6.8,7.9l0.7,0l2.5-1.3l-0.5,4.7l0.2,0.5l4.2,3.4
							l0.3,0.2l5.8,0.6l0.5-0.2l3.8-4.8l5.1,1.7l-1.8,2.4l0.2,0.8l6.8,3l-2.8,4.3l-5.8,1l0.1,0.5l-0.5-0.1l-0.8,5l0.5,0.7l14.2,2.8
							l20.6,18.2l0.4-0.4l-0.2,0.5l10.8,3.5l-2.4,3.4l0.2,0.8l6.7,4.2l0.8,9.2 M500.8,243.1l-9.1-20l6.5-11.1l21.7-6.6 M487.2,312.4
							l1.4-0.4l0.4-0.5l0.4-2.9l4.3,0.8l6.6,8.9l0.7,0.1l6.8-3.6l0.3-0.4l1.9-6.9 M606.6,330.3l1.5,5.1l0.4,0.4l12.8,5.6l0.5,0
							l13.4-5.7l0.3-0.2l5.8-8.7l13.9-0.3l0.2-0.1l9.6-5.3l0.3-0.4l5.1-37.8l23.5-4.8 M995.1,350.5l-20.2-74.2 M243.1,808.3l1.3,1.9
							l0.9-0.7 M1057.1,906.3l-0.3,0.2l-7.7,4.6l-0.1,0l-1.3,0.4l0.3,1l1.4-0.4l0.2,0l7.2-4.4l0.6,0.2l0.5-0.9L1057.1,906.3z"/>
						<polyline id="polyline1923_10_" class="st3" points="645.5,289.6 653.9,293.1 652.8,283.9 657.8,284.6 659.5,280.2 						"/>
						<line id="line1925_10_" class="st3" x1="103.2" y1="196.2" x2="107" y2="198.8"/>
						<polyline id="polyline1927_10_" class="st3" points="106.4,200.8 104.1,203.9 104.2,211.8 100.9,214.7 98.6,227.1 
							101.4,237.3 97.1,260.7 81.4,276.3 81.7,281.6 87.2,304.1 						"/>
						<polyline id="polyline1929_10_" class="st3" points="50.1,316.5 52.4,312.6 52.6,303.3 55,302.5 60.3,310.7 61.3,322.3 
							63.3,322.4 69.8,289.1 81.3,277.1 						"/>
						<path id="path1931_10_" class="st3" d="M41.2,301l-2.6,8.8l-1.9,1.3l2.3,53.5c0,0-1.9-5.1-2.1,0.6c-0.2,5.7,2.4,20.5,2.4,20.5
							l-0.5,3.2l3.1,23.7l-1.4,1.6l10,39l1.6,6.3l3.2,1.7l3.4,8.8l4,0.7l0.2-9.2l3.8,2.6l3-12.6L73,450l3.8-38.6l-4.6,1l-14.2-13.1
							l-2.8-14.3l1.1-11.3"/>
						<polyline id="polyline1933_10_" class="st3" points="54.4,360.3 51.8,361.8 50.2,375.2 51.7,380 55.8,379.9 						"/>
						<polyline id="polyline1935_10_" class="st3" points="52.2,363.2 43.7,345 42.7,338.1 38.1,333 						"/>
						<polyline id="polyline1937_10_" class="st3" points="66.1,463.5 67.1,476.5 79,519.4 83.8,528.9 						"/>
						<polyline id="polyline1939_10_" class="st3" points="51,456 50.6,463.3 52.1,468.5 49.7,471.6 46.3,458.2 45.4,458.8 						
							"/>
						<polyline id="polyline1941_10_" class="st3" points="67.8,523.6 61.5,500.5 59.2,491.8 56.6,481.9 52.1,468.5 						"/>
						<polyline id="polyline1943_10_" class="st3" points="90.4,562.9 82.7,551.3 81.1,546.1 67.2,523 64.4,523.5 56.1,493.8 
							49.8,470.8 						"/>
						<polyline id="polyline1955_10_" class="st3" points="49.8,166.3 52.6,166.9 55.3,157 58.8,151 59.3,139.1 66.4,132.4 
							67.5,120 61.3,129.4 61.3,125.6 						"/>
						<polyline id="polyline1957_10_" class="st3" points="76.6,78.9 80.2,79.7 88.9,72.2 83.8,82.8 75.5,106.5 67.5,120 						"/>
						<polyline id="polyline1959_10_" class="st3" points="65.8,133 69.6,150.4 67.4,159.4 78.9,167.2 						"/>
						<polyline id="polyline1961_10_" class="st3" points="81.3,150.2 77.9,152.8 73.7,163.9 						"/>
						<line id="line1963_10_" class="st3" x1="50.7" y1="160.7" x2="54.7" y2="143.9"/>
						<polyline id="polyline1965_10_" class="st3" points="82.9,150.5 82.5,144.2 83.7,139.6 85.4,122.8 83.1,117.8 84.6,106.4 
							94.4,86.4 91.7,83.8 93,72 92.6,70.6 89.9,70.3 88.2,72.4 						"/>
						<polyline id="polyline1967_10_" class="st3" points="93,72 99.4,53.9 103.9,45.6 105,51.7 106.2,44.5 104.1,42.5 						"/>
						<polyline id="polyline1969_10_" class="st3" points="104.5,51.1 112.7,42.2 109.5,51.5 111,54 						"/>
						<polyline id="polyline1971_10_" class="st3" points="112.9,4.2 115.9,9 117.1,13.2 118.7,12 119.3,23.9 123.6,20.2 						"/>
						<polyline id="polyline1973_10_" class="st3" points="106.3,24.8 108.7,24.1 108.4,28 112.5,26.7 114.5,28 118.6,19.2 						
							"/>
						<polyline id="polyline1975_10_" class="st3" points="103.9,45.6 103.8,40.3 107.2,32.9 108.9,27.1 						"/>
						<polyline id="polyline1977_10_" class="st3" points="111.5,27 110.4,37.2 108.2,39.8 108.3,43.9 108.2,47.3 						"/>
						<polyline id="polyline1987_10_" class="st3" points="147.6,-29.7 147.5,-32.8 151.5,-35.8 153.2,-40.9 151.2,-45.3 
							153.8,-49.4 167.1,-69.6 168.4,-66.4 170.4,-71.8 183.4,-85.5 184.8,-84 188.7,-86.3 190.2,-81.2 187.6,-78.1 190.3,-79.2 
							191.5,-78.2 197.3,-82.1 199.6,-81.5 200.9,-85.3 201.6,-85.4 203.8,-80.2 206,-84.2 213.2,-84.8 217.3,-91.6 215.8,-96.8 
							219.4,-98.4 223.6,-105.8 228.2,-106.8 225.5,-109.6 229.5,-110.4 227.6,-112 228.4,-115.1 243,-120.2 252.1,-127.2 
							263.8,-131.6 265.3,-135.1 273.1,-137.5 274.5,-133 273,-129.3 277.2,-130.7 278.2,-127.4 284.1,-130.3 280.6,-126.3 
							285.2,-127.5 294.6,-134.9 300,-139.4 296.8,-132.6 300.9,-129.3 302.4,-111.8 309,-117.2 311.7,-112.7 322.3,-118.6 
							331,-109.8 336.8,-110.9 340.2,-114.2 341.9,-109.5 344.9,-110.9 346,-106.2 356.3,-104.8 363.1,-96.5 361.4,-81.5 
							378.2,-84.4 391.3,-81.2 399,-70.1 434.7,-78.1 469.1,-79.1 488,-94.1 503.3,-96.5 515.2,-105.7 525.1,-117.8 517.2,-120.2 
							522.1,-127 536,-129.1 541.6,-136.3 552.2,-140.2 563.4,-153.2 579.8,-160.1 567.6,-167.6 559.3,-161.6 544.2,-159.4 
							547.8,-177.2 529.8,-175.3 523.6,-166.7 506.5,-157.4 489.9,-154.9 483.9,-157.7 466.7,-156.4 452,-150.3 445.9,-151.8 
							444.5,-157 422.8,-157.7 414.2,-147.1 416.6,-141.3 410.1,-133.6 392.2,-131.7 391,-135.5 380,-134.7 349.8,-112.9 
							341.9,-107.4 339.7,-108.5 336.5,-102.8 330,-99.8 327,-88.2 320.1,-82.6 310.4,-83.5 301.7,-67.1 302.6,-62.7 297.6,-63.8 
							284.6,-55.7 287.8,-54.5 287,-39.7 281,-33.8 280,-26.9 264.1,-14.5 255.5,-11.3 250.9,-3.1 241.3,-1.5 231.3,12.1 
							222.2,16.5 219.2,13.7 205.4,16.5 206.4,14.4 217.8,10.4 216.7,7.1 221.2,6.3 230.6,-2.1 227.6,-3.4 226.1,-8.1 220.7,-2.8 
							218,-4.7 225.2,-12.9 224.6,-14 226,-19 231.3,-21.2 238.5,-19.8 240.7,-25.1 245.5,-28.5 253.1,-27.4 276.3,-32.4 
							281.1,-28.6 						"/>
						<polyline id="polyline1989_10_" class="st3" points="136.2,14.9 145,8 144.3,17.2 148.3,15.8 163,-20.9 175.1,-29.8 
							178.6,-28.4 180.8,-21 181.4,-14.1 196.1,-19 197.3,-13.3 199.7,-14.1 196.8,-4.2 197.8,-3 199,2.3 203.6,0.9 202.7,6.7 
							205.2,6.3 210,-3.1 224.6,-14 						"/>
						<polyline id="polyline1991_10_" class="st3" points="217.4,7.2 215.1,5.5 217,2.3 217.3,-0.6 211.3,4.4 209.6,3.7 205.2,11 
							204,16.9 195.8,18.4 194.4,23.1 196.6,24.2 196.5,32.3 190.4,46.9 184.1,44.4 186.8,37.8 170.9,21 172,11 165.3,9.5 167.8,2 
							162,-3.1 161,0 160.3,3.3 153.4,9.6 152.3,16.3 148.1,16.1 						"/>
						<polyline id="polyline1999_10_" class="st3" points="184.1,44.4 180.8,43.7 173.4,51 171.6,61.7 160.8,67.5 157.9,72.9 
							150.9,72 153,61.8 150.5,62 148.1,54.2 142.2,51.4 141.4,48.6 133.2,51.6 127.2,60 125,61.2 						"/>
						<polyline id="polyline2001_10_" class="st3" points="132.6,192.3 135.9,178.1 144.6,171.9 145.4,166.1 142.4,164.5 
							144.1,151.9 138.5,150.1 135.4,138.4 144.4,123 142.6,119 140.8,119.6 142,100.5 144,96.9 143.3,94.6 143.7,89.4 147.6,87.2 
							150.9,72 						"/>
						<polyline id="polyline2003_10_" class="st3" points="190.5,45.8 192.5,47.2 196.8,41.4 201,43.6 214.1,27 215.2,32.2 
							212.9,43 224.8,32.3 233.4,32.2 237.6,29.4 237.3,18.4 230.8,18.9 231.3,12.1 						"/>
						<polyline id="polyline2005_10_" class="st3" points="135.4,138.4 153,138.1 168.2,128.9 172.3,112 189.7,101.1 191.9,86.8 
							198.2,82.4 197,73.6 205.9,71.4 205,66.7 210.5,59.9 209.8,51 211.6,47 232.1,34.6 232.3,32.1 						"/>
						<line id="line2007_10_" class="st3" x1="329.1" y1="120.8" x2="328.9" y2="103.7"/>
						<polyline id="polyline2009_10_" class="st3" points="258.6,73.7 256.4,76.2 252.6,75.4 253.8,89.2 256.3,87.4 269.1,94.6 
							277.1,91.2 310.6,108.2 310.8,105.6 328.9,103.7 332.2,99.6 335.2,103.9 336.7,105.8 346.7,94.2 361.4,94.3 364.3,102 
							337.6,112.1 337.3,111.3 335.9,105.1 						"/>
						<line id="line2011_10_" class="st3" x1="232.5" y1="33.3" x2="234" y2="34"/>
						<polyline id="polyline2013_10_" class="st3" points="814.9,404.2 815.6,404.5 815.4,408.9 812,408.4 811.5,408.3 						"/>
						<polyline id="polyline2015_10_" class="st3" points="328.8,119.9 303,123.2 295.8,117.8 283.4,121.6 262.6,113.2 264.8,100.5 
							270,94.3 						"/>
						<polyline id="polyline2017_10_" class="st3" points="228.8,85.5 224.3,92.1 224.3,100.2 202.5,139.7 193,145.1 190.5,143.3 
							184.4,153.3 184.7,157.7 188.8,159.5 187.2,167.5 190.6,168.5 193.7,183.8 182.3,187.7 178,188.5 174.1,195.8 						"/>
						<polyline id="polyline2019_10_" class="st3" points="817.7,401.8 820.3,407.2 822.8,411.5 						"/>
						<polyline id="polyline2021_10_" class="st3" points="342.8,169.1 340.1,153.8 336.6,150.3 337.9,141.3 330.3,139.6 
							337.9,129.7 330,125.6 332.9,116.6 339.8,121.1 344.6,118.6 345.6,126.9 369.1,126.3 359.7,141.8 363.4,148.7 366.1,137.8 
							370.5,140.5 376.7,164.4 372.2,162.7 372.1,167.8 						"/>
						<polyline id="polyline2023_10_" class="st3" points="402.4,75.2 401.5,76.5 411.9,75.9 413.4,70.9 417.5,72.6 423.7,79.8 
							425.4,78.8 427.2,96.4 417.9,107.4 420.3,121.8 432.1,115.7 434.2,126.1 439.8,126 439.3,137.7 447.8,134.1 449.6,140.1 
							457.4,135.7 459.5,136.1 						"/>
						<polyline id="polyline2025_10_" class="st3" points="374.6,155.9 380.4,151.6 379.8,129.6 387.2,130.9 393.5,96.6 402.1,88.4 
							410.4,87.4 408.8,82.4 409.1,75.4 						"/>
						<polyline id="polyline2027_10_" class="st3" points="51.1,163.8 61.3,129.4 69.9,108.7 65.7,110 						"/>
						<polyline id="polyline2029_10_" class="st3" points="85.7,215.7 87.5,221.4 101,217.2 						"/>
					</g>
				</g>
				<g id="Disputed_10_">
					<g>
						<line id="line2032_10_" class="st3" x1="111.6" y1="12.5" x2="117.2" y2="8"/>
						<polyline id="polyline2034_10_" class="st3" points="118.4,15 113.7,14.6 118.7,12 						"/>
						<polyline id="polyline2036_10_" class="st3" points="252.6,75.4 239.9,75.5 231.5,84.5 						"/>
						<polyline id="polyline2038_10_" class="st3" points="228.5,59.5 227.5,56.1 220,58 219.2,74.4 222.4,77.5 						"/>
						<polyline id="polyline2040_10_" class="st3" points="225.1,39.1 218.1,49.6 220,58 						"/>
						<line id="line2042_10_" class="st3" x1="245.2" y1="54.4" x2="253.8" y2="50.8"/>
						<line id="line2044_10_" class="st3" x1="257.1" y1="65.4" x2="259.1" y2="71.5"/>
						<polyline id="polyline2046_10_" class="st3" points="254.1,52.2 260.4,45.1 265.5,52.8 257.4,62.7 						"/>
						<polyline id="polyline2048_10_" class="st3" points="364.3,102 392.2,84.8 403.4,75.8 						"/>
						<polyline id="polyline2050_10_" class="st3" points="234,34 239.2,36.5 240.7,44.7 253.1,43.9 254.1,52.2 257.7,54.1 
							257.1,65.4 261.6,70.1 258.6,73.7 						"/>
						<polyline id="polyline2052_10_" class="st3" points="251.9,43.3 245.2,54.4 224.9,60.6 222.3,66.9 225.5,69.5 222.4,77.5 
							229.6,84.4 228.8,85.5 						"/>
						<polyline id="polyline2054_10_" class="st3" points="361.4,94.3 368.8,92 374.4,82.2 386,70.6 393.1,70.5 400.6,63.6 
							402.1,65.2 400.9,69.6 404.6,68.5 405,71.4 402.4,75.2 						"/>
					</g>
				</g>
			</g>
		</g>
	</g>
</g>
<g>
	<path class="st4" d="M147.8,141.1c-9.5,0-17.8-6.1-20.5-15.2c-3.5-11.3,3-23.4,14.3-26.8c2-0.6,4.2-0.9,6.3-0.9
		c9.5,0,17.8,6.1,20.5,15.2c1.7,5.5,1.1,11.3-1.6,16.4c-2.7,5.1-7.2,8.8-12.7,10.4C152.1,140.8,150,141.1,147.8,141.1z"/>
	<g>
		<path class="st5" d="M147.9,98.3L147.9,98.3c9.4,0,17.6,6,20.3,15.1c3.4,11.2-2.9,23.1-14.1,26.5c-2,0.6-4.1,0.9-6.2,0.9
			c-9.4,0-17.6-6-20.3-15.1c-1.7-5.4-1.1-11.2,1.6-16.2c2.7-5,7.1-8.7,12.5-10.3C143.7,98.7,145.8,98.3,147.9,98.3 M147.9,97.8
			c-2.1,0-4.2,0.3-6.3,0.9c-11.5,3.5-18,15.6-14.5,27.1c2.9,9.4,11.5,15.4,20.8,15.4c2.1,0,4.2-0.3,6.3-0.9
			c11.5-3.5,18-15.6,14.5-27.1C165.8,103.9,157.2,97.8,147.9,97.8L147.9,97.8z"/>
	</g>
</g>
<g>
	<path class="st4" d="M171.2,96.6c-9.5,0-17.8-6.1-20.5-15.2c-1.7-5.5-1.1-11.3,1.6-16.4c2.7-5.1,7.2-8.8,12.7-10.4
		c2-0.6,4.2-0.9,6.3-0.9c9.5,0,17.8,6.1,20.5,15.2c3.5,11.3-3,23.4-14.3,26.8C175.5,96.3,173.4,96.6,171.2,96.6z"/>
	<path class="st5" d="M171.3,53.9L171.3,53.9c9.4,0,17.6,6,20.3,15.1c3.4,11.2-2.9,23.1-14.1,26.5c-2,0.6-4.1,0.9-6.2,0.9
		c-9.4,0-17.6-6-20.3-15.1c-1.7-5.4-1.1-11.2,1.6-16.2c2.7-5,7.1-8.7,12.5-10.3C167.1,54.2,169.2,53.9,171.3,53.9 M171.3,53.4
		c-2.1,0-4.2,0.3-6.3,0.9c-11.5,3.5-18,15.6-14.5,27.1c2.9,9.4,11.5,15.4,20.8,15.4c2.1,0,4.2-0.3,6.3-0.9
		c11.5-3.5,18-15.6,14.5-27.1C189.2,59.4,180.6,53.4,171.3,53.4L171.3,53.4z"/>
</g>
<g>
	<path class="st4" d="M162.9,166.8c-1.2,0-2.3-0.1-3.5-0.3c-5.7-0.9-10.6-4-14-8.7c-3.3-4.7-4.7-10.3-3.8-16
		c1.7-10.4,10.6-18,21.2-18c1.2,0,2.3,0.1,3.5,0.3c5.7,0.9,10.6,4,14,8.7s4.7,10.3,3.8,16C182.4,159.2,173.5,166.8,162.9,166.8z"/>
	<g>
		<path class="st5" d="M162.9,124.1L162.9,124.1c1.1,0,2.3,0.1,3.5,0.3c5.6,0.9,10.5,4,13.8,8.6c3.3,4.6,4.6,10.2,3.7,15.8
			c-1.7,10.3-10.5,17.8-20.9,17.8c-1.1,0-2.3-0.1-3.5-0.3c-5.6-0.9-10.5-4-13.8-8.6c-3.3-4.6-4.6-10.2-3.7-15.8
			C143.6,131.6,152.5,124.1,162.9,124.1 M162.9,123.6c-10.5,0-19.7,7.6-21.4,18.2c-1.9,11.8,6.1,23,17.9,25c1.2,0.2,2.4,0.3,3.5,0.3
			c10.5,0,19.7-7.6,21.4-18.2c1.9-11.8-6.1-23-17.9-25C165.2,123.7,164.1,123.6,162.9,123.6L162.9,123.6z"/>
	</g>
</g>
<g>
	<path class="st4" d="M181.3,141.5c-1.2,0-2.3-0.1-3.5-0.3c-5.7-0.9-10.6-4-14-8.7c-3.4-4.7-4.7-10.3-3.8-16
		c1.7-10.4,10.6-18,21.2-18c1.2,0,2.3,0.1,3.5,0.3c11.7,1.9,19.6,13,17.7,24.7C200.8,133.9,191.9,141.5,181.3,141.5z"/>
	<path class="st5" d="M181.2,98.7L181.2,98.7c1.1,0,2.3,0.1,3.5,0.3c5.6,0.9,10.5,4,13.8,8.6c3.3,4.6,4.6,10.2,3.7,15.8
		c-1.7,10.3-10.5,17.8-20.9,17.8c-1.1,0-2.3-0.1-3.5-0.3c-5.6-0.9-10.5-4-13.8-8.6s-4.6-10.2-3.7-15.8
		C162,106.2,170.8,98.7,181.2,98.7 M181.2,98.2c-10.5,0-19.7,7.6-21.4,18.2c-1.9,11.8,6.1,23,17.9,25c1.2,0.2,2.4,0.3,3.5,0.3
		c10.5,0,19.7-7.6,21.4-18.2c1.9-11.8-6.1-23-17.9-25C183.6,98.3,182.4,98.2,181.2,98.2L181.2,98.2z"/>
</g>
<g>
	<path class="st6" d="M718.4,148.2c-5.9,0-11-3.8-12.7-9.4c-2.1-7,1.8-14.4,8.8-16.6c1.3-0.4,2.6-0.6,3.9-0.6c5.9,0,11,3.8,12.7,9.4
		c1,3.4,0.7,7-1,10.1c-1.7,3.1-4.5,5.4-7.8,6.5C721,148,719.7,148.2,718.4,148.2z"/>
	<path class="st5" d="M718.4,121.9L718.4,121.9c5.8,0,10.8,3.7,12.4,9.2c1,3.3,0.7,6.8-1,9.9s-4.4,5.3-7.7,6.3
		c-1.2,0.4-2.5,0.6-3.8,0.6c-5.8,0-10.8-3.7-12.4-9.2c-2.1-6.9,1.8-14.2,8.7-16.2C715.9,122.1,717.2,121.9,718.4,121.9 M718.4,121.4
		c-1.3,0-2.6,0.2-3.9,0.6c-7.1,2.2-11.2,9.7-9,16.9c1.8,5.8,7.1,9.6,12.9,9.6c1.3,0,2.6-0.2,3.9-0.6c7.1-2.2,11.2-9.7,9-16.9
		C729.6,125.2,724.2,121.4,718.4,121.4L718.4,121.4z"/>
</g>
<g>
	<path class="st6" d="M700.5,154.2c-4.4,0-8.3-2.9-9.6-7.1c-1.6-5.3,1.4-10.9,6.7-12.5c1-0.3,1.9-0.4,2.9-0.4c4.4,0,8.3,2.9,9.6,7.1
		c1.6,5.3-1.4,10.9-6.7,12.5C702.5,154,701.5,154.2,700.5,154.2z"/>
	<path class="st5" d="M700.5,134.4L700.5,134.4c4.3,0,8.1,2.8,9.3,6.9c1.6,5.2-1.3,10.6-6.5,12.2c-0.9,0.3-1.9,0.4-2.9,0.4
		c-4.3,0-8.1-2.8-9.3-6.9c-1.6-5.2,1.3-10.6,6.5-12.2C698.6,134.5,699.6,134.4,700.5,134.4 M700.5,133.9c-1,0-2,0.1-3,0.4
		c-5.4,1.7-8.5,7.4-6.8,12.8c1.3,4.4,5.4,7.3,9.8,7.3c1,0,2-0.1,3-0.4c5.4-1.7,8.5-7.4,6.8-12.8C709,136.7,704.9,133.9,700.5,133.9
		L700.5,133.9z"/>
</g>
<g>
	<path class="st4" d="M735.1,245.7c-9.5,0-17.8-6.1-20.5-15.2c-3.5-11.3,3-23.4,14.3-26.8c2-0.6,4.2-0.9,6.3-0.9
		c9.5,0,17.8,6.1,20.5,15.2c1.7,5.5,1.1,11.3-1.6,16.4c-2.7,5.1-7.2,8.8-12.7,10.4C739.3,245.4,737.2,245.7,735.1,245.7z"/>
	<path class="st5" d="M735.1,203L735.1,203c9.4,0,17.6,6,20.3,15.1c3.4,11.2-2.9,23.1-14.1,26.5c-2,0.6-4.1,0.9-6.2,0.9
		c-9.4,0-17.6-6-20.3-15.1c-3.4-11.2,2.9-23.1,14.1-26.5C730.9,203.3,733,203,735.1,203 M735.1,202.5c-2.1,0-4.2,0.3-6.3,0.9
		c-11.5,3.5-18,15.6-14.5,27.1c2.9,9.4,11.5,15.4,20.8,15.4c2.1,0,4.2-0.3,6.3-0.9c11.5-3.5,18-15.6,14.5-27.1
		C753,208.6,744.4,202.5,735.1,202.5L735.1,202.5z"/>
</g>
<g>
	<path class="st4" d="M761,216.7c-9.5,0-17.8-6.1-20.5-15.2c-1.7-5.5-1.1-11.3,1.6-16.4c2.7-5.1,7.2-8.8,12.7-10.4
		c2-0.6,4.2-0.9,6.3-0.9c9.5,0,17.8,6.1,20.5,15.2c1.7,5.5,1.1,11.3-1.6,16.4c-2.7,5.1-7.2,8.8-12.7,10.4
		C765.2,216.4,763.1,216.7,761,216.7z"/>
	<path class="st5" d="M761,173.9L761,173.9c9.4,0,17.6,6,20.3,15.1c1.7,5.4,1.1,11.2-1.6,16.2c-2.7,5-7.1,8.7-12.5,10.3
		c-2,0.6-4.1,0.9-6.2,0.9c-9.4,0-17.6-6-20.3-15.1c-3.4-11.2,2.9-23.1,14.1-26.5C756.8,174.3,758.9,173.9,761,173.9 M761,173.4
		c-2.1,0-4.2,0.3-6.3,0.9c-11.5,3.5-18,15.6-14.5,27.1c2.9,9.4,11.5,15.4,20.8,15.4c2.1,0,4.2-0.3,6.3-0.9
		c11.5-3.5,18-15.6,14.5-27.1C778.9,179.5,770.3,173.4,761,173.4L761,173.4z"/>
</g>
<g>
	<path class="st6" d="M739.3,167.8c-3.6,0-6.7-2.3-7.8-5.8c-1.3-4.3,1.1-8.9,5.4-10.2c0.8-0.2,1.6-0.4,2.4-0.4
		c3.6,0,6.7,2.3,7.8,5.8c0.6,2.1,0.4,4.3-0.6,6.2c-1,1.9-2.7,3.3-4.8,4C740.9,167.6,740.1,167.8,739.3,167.8z"/>
	<path class="st5" d="M739.3,151.7L739.3,151.7c3.5,0,6.5,2.2,7.5,5.6c0.6,2,0.4,4.2-0.6,6c-1,1.9-2.6,3.2-4.7,3.8
		c-0.8,0.2-1.5,0.3-2.3,0.3c-3.5,0-6.5-2.2-7.5-5.6c-0.6-2-0.4-4.2,0.6-6c1-1.9,2.6-3.2,4.7-3.8
		C737.7,151.8,738.5,151.7,739.3,151.7 M739.3,151.2c-0.8,0-1.6,0.1-2.4,0.4c-4.4,1.4-6.9,6-5.6,10.5c1.1,3.6,4.4,6,8,6
		c0.8,0,1.6-0.1,2.4-0.4c4.4-1.4,6.9-6,5.6-10.5C746.2,153.5,742.9,151.2,739.3,151.2L739.3,151.2z"/>
</g>
<g>
	<path class="st4" d="M465.2,259c-4.9,0-9.2-3.2-10.6-7.9c-0.9-2.8-0.6-5.8,0.8-8.5c1.4-2.6,3.7-4.5,6.6-5.4
		c1.1-0.3,2.1-0.5,3.2-0.5c4.9,0,9.2,3.2,10.6,7.9c0.9,2.8,0.6,5.8-0.8,8.5c-1.4,2.6-3.7,4.5-6.6,5.4
		C467.3,258.8,466.2,259,465.2,259z"/>
	<path class="st5" d="M465.2,237L465.2,237c4.8,0,9,3.1,10.4,7.7c0.8,2.8,0.6,5.7-0.8,8.3c-1.4,2.6-3.6,4.4-6.4,5.3
		c-1,0.3-2.1,0.5-3.2,0.5c-4.8,0-9-3.1-10.4-7.7c-1.7-5.7,1.5-11.8,7.2-13.5C463,237.1,464.1,237,465.2,237 M465.2,236.5
		c-1.1,0-2.2,0.2-3.3,0.5c-6,1.8-9.4,8.2-7.6,14.2c1.5,4.9,6,8,10.9,8c1.1,0,2.2-0.2,3.3-0.5c6-1.8,9.4-8.2,7.6-14.2
		C474.5,239.6,470,236.5,465.2,236.5L465.2,236.5z"/>
</g>
<g>
	<circle class="st7" cx="516.9" cy="133.6" r="6.8"/>
	<circle class="st7" cx="564.8" cy="201.9" r="6.8"/>
	<circle class="st7" cx="684.7" cy="276.4" r="6.8"/>
	<circle class="st7" cx="680.1" cy="419.9" r="6.8"/>
</g>
<g>
	<circle class="st7" cx="97.8" cy="72.3" r="6.8"/>
	<circle class="st7" cx="145.7" cy="140.6" r="6.8"/>
	<circle class="st7" cx="265.6" cy="215" r="6.8"/>
	<circle class="st7" cx="261" cy="358.5" r="6.8"/>
</g>
<g>
	<path class="st4" d="M594.5,451.9c-8.1,0-15.1-5.2-17.4-12.9c-1.4-4.7-0.9-9.6,1.4-13.9c2.3-4.3,6.1-7.5,10.8-8.9
		c1.7-0.5,3.5-0.8,5.3-0.8c8.1,0,15.1,5.2,17.4,12.9c2.9,9.6-2.5,19.8-12.1,22.8C598.1,451.6,596.3,451.9,594.5,451.9z"/>
	<path class="st5" d="M594.5,415.6L594.5,415.6c8,0,14.9,5.1,17.2,12.8c1.4,4.6,0.9,9.5-1.3,13.7s-6,7.3-10.6,8.7
		c-1.7,0.5-3.5,0.8-5.3,0.8c-8,0-14.9-5.1-17.2-12.8c-1.4-4.6-0.9-9.5,1.3-13.7s6-7.3,10.6-8.7C591,415.9,592.7,415.6,594.5,415.6
		 M594.5,415.1c-1.8,0-3.6,0.3-5.4,0.8c-9.8,3-15.3,13.3-12.3,23.1c2.4,8,9.8,13.1,17.7,13.1c1.8,0,3.6-0.3,5.4-0.8
		c9.8-3,15.3-13.3,12.3-23.1C609.8,420.2,602.4,415.1,594.5,415.1L594.5,415.1z"/>
</g>
<g>
	<path class="st6" d="M686.1,133.7c-2.6,0-4.9-1.7-5.7-4.2c-1-3.1,0.8-6.4,3.9-7.4c0.6-0.2,1.1-0.3,1.7-0.3c2.6,0,4.9,1.7,5.7,4.2
		c0.5,1.5,0.3,3.1-0.4,4.5c-0.7,1.4-2,2.4-3.5,2.9C687.3,133.7,686.7,133.7,686.1,133.7z"/>
	<path class="st5" d="M686.1,122.2L686.1,122.2c2.5,0,4.7,1.6,5.4,4c0.4,1.4,0.3,3-0.4,4.3s-1.9,2.3-3.3,2.8
		c-0.5,0.2-1.1,0.2-1.7,0.2c-2.5,0-4.7-1.6-5.4-4c-0.4-1.4-0.3-3,0.4-4.3c0.7-1.3,1.9-2.3,3.3-2.8
		C685,122.2,685.6,122.2,686.1,122.2 M686.1,121.7c-0.6,0-1.2,0.1-1.8,0.3c-3.3,1-5.1,4.4-4.1,7.7c0.8,2.7,3.3,4.4,5.9,4.4
		c0.6,0,1.2-0.1,1.8-0.3c3.3-1,5.1-4.4,4.1-7.7C691.2,123.4,688.8,121.7,686.1,121.7L686.1,121.7z"/>
</g>
<g>
	<path class="st6" d="M698,133.4c-1.6,0-2.9-1-3.4-2.5c-0.3-0.9-0.2-1.9,0.3-2.7c0.4-0.8,1.2-1.4,2.1-1.7c0.3-0.1,0.7-0.2,1-0.2
		c1.6,0,2.9,1,3.4,2.5c0.6,1.9-0.5,3.8-2.4,4.4C698.7,133.3,698.4,133.4,698,133.4z"/>
	<path class="st5" d="M698,126.6L698,126.6c1.5,0,2.7,0.9,3.1,2.3c0.3,0.8,0.2,1.7-0.2,2.5s-1.1,1.3-1.9,1.6c-0.3,0.1-0.6,0.1-1,0.1
		c-1.5,0-2.7-0.9-3.1-2.3c-0.5-1.7,0.5-3.6,2.2-4.1C697.4,126.6,697.7,126.6,698,126.6 M698,126.1c-0.4,0-0.7,0.1-1.1,0.2
		c-2,0.6-3.1,2.7-2.5,4.7c0.5,1.6,2,2.7,3.6,2.7c0.4,0,0.7-0.1,1.1-0.2c2-0.6,3.1-2.7,2.5-4.7C701.2,127.1,699.7,126.1,698,126.1
		L698,126.1z"/>
</g>
<g>
	<path class="st6" d="M732.1,160.7c-1.6,0-2.9-1-3.4-2.5c-0.3-0.9-0.2-1.9,0.3-2.7c0.4-0.8,1.2-1.4,2.1-1.7c0.3-0.1,0.7-0.2,1-0.2
		c1.6,0,2.9,1,3.4,2.5c0.6,1.9-0.5,3.8-2.4,4.4C732.8,160.7,732.5,160.7,732.1,160.7z"/>
	<path class="st5" d="M732.1,153.9L732.1,153.9c1.5,0,2.7,0.9,3.1,2.3c0.3,0.8,0.2,1.7-0.2,2.5c-0.4,0.8-1.1,1.3-1.9,1.6
		c-0.3,0.1-0.6,0.1-1,0.1c-1.5,0-2.7-0.9-3.1-2.3c-0.3-0.8-0.2-1.7,0.2-2.5c0.4-0.8,1.1-1.3,1.9-1.6
		C731.5,154,731.8,153.9,732.1,153.9 M732.1,153.4c-0.4,0-0.7,0.1-1.1,0.2c-2,0.6-3.1,2.7-2.5,4.7c0.5,1.6,2,2.7,3.6,2.7
		c0.4,0,0.7-0.1,1.1-0.2c2-0.6,3.1-2.7,2.5-4.7C735.3,154.5,733.8,153.4,732.1,153.4L732.1,153.4z"/>
</g>
<g>
	<path class="st6" d="M751.2,149.3c-1.6,0-2.9-1-3.4-2.5c-0.6-1.9,0.5-3.8,2.4-4.4c0.3-0.1,0.7-0.2,1-0.2c1.6,0,2.9,1,3.4,2.5
		c0.3,0.9,0.2,1.9-0.3,2.7s-1.2,1.4-2.1,1.7C751.9,149.2,751.6,149.3,751.2,149.3z"/>
	<path class="st5" d="M751.2,142.4L751.2,142.4c1.5,0,2.7,0.9,3.1,2.3c0.5,1.7-0.5,3.6-2.2,4.1c-0.3,0.1-0.6,0.1-1,0.1
		c-1.5,0-2.7-0.9-3.1-2.3c-0.3-0.8-0.2-1.7,0.2-2.5c0.4-0.8,1.1-1.3,1.9-1.6C750.6,142.5,750.9,142.4,751.2,142.4 M751.2,141.9
		c-0.4,0-0.7,0.1-1.1,0.2c-2,0.6-3.1,2.7-2.5,4.7c0.5,1.6,2,2.7,3.6,2.7c0.4,0,0.7-0.1,1.1-0.2c2-0.6,3.1-2.7,2.5-4.7
		C754.4,143,752.9,141.9,751.2,141.9L751.2,141.9z"/>
</g>
<g>
	<path class="st6" d="M717.3,163.2c-3.2,0-6-2.1-6.9-5.1c-1.2-3.8,1-7.8,4.8-9c0.7-0.2,1.4-0.3,2.1-0.3c3.2,0,6,2.1,6.9,5.1
		c1.2,3.8-1,7.8-4.8,9C718.7,163.1,718,163.2,717.3,163.2z"/>
	<path class="st5" d="M717.3,149L717.3,149c3.1,0,5.8,2,6.7,4.9c0.5,1.8,0.4,3.7-0.5,5.3c-0.9,1.6-2.3,2.8-4.1,3.4
		c-0.7,0.2-1.3,0.3-2,0.3c-3.1,0-5.8-2-6.7-4.9c-1.1-3.7,1-7.6,4.6-8.7C715.9,149.1,716.6,149,717.3,149 M717.3,148.5
		c-0.7,0-1.5,0.1-2.2,0.3c-3.9,1.2-6.2,5.4-5,9.3c1,3.2,3.9,5.3,7.1,5.3c0.7,0,1.5-0.1,2.2-0.3c3.9-1.2,6.2-5.4,5-9.3
		C723.5,150.6,720.5,148.5,717.3,148.5L717.3,148.5z"/>
</g>
<g>
	<path class="st4" d="M720,416.9c-5.8,0-10.8-3.7-12.5-9.2c-2.1-6.9,1.8-14.2,8.7-16.3c1.2-0.4,2.5-0.6,3.8-0.6
		c5.8,0,10.8,3.7,12.5,9.2c1,3.3,0.7,6.9-1,9.9c-1.6,3.1-4.4,5.3-7.7,6.3C722.5,416.7,721.2,416.9,720,416.9z"/>
	<path class="st5" d="M720,391.1L720,391.1c5.7,0,10.6,3.6,12.2,9.1c2.1,6.8-1.8,13.9-8.5,16c-1.2,0.4-2.5,0.6-3.7,0.6
		c-5.7,0-10.6-3.6-12.2-9.1c-2.1-6.8,1.8-13.9,8.5-16C717.5,391.3,718.7,391.1,720,391.1 M720,390.6c-1.3,0-2.6,0.2-3.9,0.6
		c-7,2.1-11,9.6-8.8,16.6c1.7,5.7,7,9.4,12.7,9.4c1.3,0,2.6-0.2,3.9-0.6c7-2.1,11-9.6,8.8-16.6C730.9,394.3,725.7,390.6,720,390.6
		L720,390.6z"/>
</g>
<g>
	<path class="st6" d="M715.9,152.4c-3.6,0-6.8-2.3-7.8-5.8c-1.3-4.3,1.1-8.9,5.4-10.2c0.8-0.2,1.6-0.4,2.4-0.4
		c3.6,0,6.8,2.3,7.8,5.8c0.6,2.1,0.4,4.3-0.6,6.2c-1,1.9-2.7,3.3-4.8,4C717.5,152.3,716.7,152.4,715.9,152.4z"/>
	<path class="st5" d="M715.9,136.3L715.9,136.3c3.5,0,6.6,2.3,7.6,5.6c1.3,4.2-1.1,8.6-5.3,9.9c-0.8,0.2-1.5,0.3-2.3,0.3
		c-3.5,0-6.6-2.3-7.6-5.6c-1.3-4.2,1.1-8.6,5.3-9.9C714.4,136.4,715.2,136.3,715.9,136.3 M715.9,135.8c-0.8,0-1.6,0.1-2.5,0.4
		c-4.5,1.4-7,6.1-5.6,10.5c1.1,3.6,4.5,6,8.1,6c0.8,0,1.6-0.1,2.5-0.4c4.5-1.4,7-6.1,5.6-10.5C722.9,138.1,719.6,135.8,715.9,135.8
		L715.9,135.8z"/>
</g>
<g>
	<path class="st6" d="M753.8,190.8c-1.3,0-2.5-0.9-2.9-2.1c-0.2-0.8-0.2-1.6,0.2-2.3c0.4-0.7,1-1.2,1.8-1.5c0.3-0.1,0.6-0.1,0.9-0.1
		c1.3,0,2.5,0.9,2.9,2.1c0.5,1.6-0.4,3.3-2,3.8C754.4,190.8,754.1,190.8,753.8,190.8z"/>
	<path class="st5" d="M753.8,185L753.8,185c1.2,0,2.3,0.8,2.6,2c0.4,1.5-0.4,3-1.8,3.4c-0.3,0.1-0.5,0.1-0.8,0.1
		c-1.2,0-2.3-0.8-2.6-2c-0.4-1.5,0.4-3,1.8-3.4C753.3,185.1,753.5,185,753.8,185 M753.8,184.5c-0.3,0-0.6,0-1,0.1
		c-1.7,0.5-2.7,2.3-2.2,4.1c0.4,1.4,1.7,2.3,3.1,2.3c0.3,0,0.6,0,1-0.1c1.7-0.5,2.7-2.3,2.2-4.1
		C756.5,185.4,755.2,184.5,753.8,184.5L753.8,184.5z"/>
</g>
<g>
	<path class="st6" d="M770.4,193.4c-1.6,0-3.1-1.1-3.5-2.6c-0.6-2,0.5-4,2.5-4.6c0.4-0.1,0.7-0.2,1.1-0.2c1.6,0,3.1,1.1,3.5,2.6
		c0.6,2-0.5,4-2.5,4.6C771.1,193.4,770.7,193.4,770.4,193.4z"/>
	<path class="st5" d="M770.4,186.3L770.4,186.3c1.5,0,2.9,1,3.3,2.4c0.3,0.9,0.2,1.8-0.3,2.6c-0.4,0.8-1.2,1.4-2,1.7
		c-0.3,0.1-0.7,0.2-1,0.2c-1.5,0-2.9-1-3.3-2.4c-0.6-1.8,0.5-3.8,2.3-4.3C769.7,186.3,770,186.3,770.4,186.3 M770.4,185.8
		c-0.4,0-0.8,0.1-1.2,0.2c-2.1,0.6-3.3,2.8-2.6,4.9c0.5,1.7,2.1,2.8,3.8,2.8c0.4,0,0.8-0.1,1.2-0.2c2.1-0.6,3.3-2.8,2.6-4.9
		C773.6,186.9,772.1,185.8,770.4,185.8L770.4,185.8z"/>
</g>
<g>
	<path class="st6" d="M755.8,213.9c-1.1,0-2-0.7-2.3-1.7c-0.4-1.3,0.3-2.7,1.6-3c0.2-0.1,0.5-0.1,0.7-0.1c1.1,0,2,0.7,2.3,1.7
		c0.4,1.3-0.3,2.7-1.6,3C756.3,213.9,756.1,213.9,755.8,213.9z"/>
	<path class="st5" d="M755.8,209.3L755.8,209.3c1,0,1.8,0.6,2.1,1.6c0.2,0.6,0.1,1.2-0.2,1.7c-0.3,0.5-0.7,0.9-1.3,1.1
		c-0.2,0.1-0.4,0.1-0.6,0.1c-1,0-1.8-0.6-2.1-1.6c-0.4-1.2,0.3-2.4,1.5-2.7C755.4,209.3,755.6,209.3,755.8,209.3 M755.8,208.8
		c-0.3,0-0.5,0-0.8,0.1c-1.4,0.4-2.2,1.9-1.8,3.4c0.4,1.2,1.4,1.9,2.6,1.9c0.3,0,0.5,0,0.8-0.1c1.4-0.4,2.2-1.9,1.8-3.4
		C758,209.5,757,208.8,755.8,208.8L755.8,208.8z"/>
</g>
<g>
	<path class="st6" d="M769.3,174.2c-1.1,0-2-0.7-2.3-1.7c-0.4-1.3,0.3-2.7,1.6-3c0.2-0.1,0.5-0.1,0.7-0.1c1.1,0,2,0.7,2.3,1.7
		c0.4,1.3-0.3,2.7-1.6,3C769.8,174.2,769.5,174.2,769.3,174.2z"/>
	<path class="st5" d="M769.3,169.6L769.3,169.6c1,0,1.8,0.6,2.1,1.6c0.4,1.2-0.3,2.4-1.5,2.7c-0.2,0.1-0.4,0.1-0.6,0.1
		c-1,0-1.8-0.6-2.1-1.6c-0.4-1.2,0.3-2.4,1.5-2.7C768.9,169.6,769.1,169.6,769.3,169.6 M769.3,169.1c-0.3,0-0.5,0-0.8,0.1
		c-1.4,0.4-2.2,1.9-1.8,3.4c0.4,1.2,1.4,1.9,2.6,1.9c0.3,0,0.5,0,0.8-0.1c1.4-0.4,2.2-1.9,1.8-3.4
		C771.5,169.9,770.4,169.1,769.3,169.1L769.3,169.1z"/>
</g>
<g>
	<path class="st4" d="M685.4,127.3c-3.6,0-6.7-2.3-7.8-5.8c-1.3-4.3,1.1-8.9,5.4-10.2c0.8-0.2,1.6-0.4,2.4-0.4
		c3.6,0,6.7,2.3,7.8,5.8c1.3,4.3-1.1,8.9-5.4,10.2C687,127.2,686.2,127.3,685.4,127.3z"/>
	<path class="st5" d="M685.5,111.3L685.5,111.3c3.5,0,6.5,2.2,7.5,5.6c0.6,2,0.4,4.2-0.6,6c-1,1.9-2.6,3.2-4.7,3.8
		c-0.8,0.2-1.5,0.3-2.3,0.3c-3.5,0-6.5-2.2-7.5-5.6c-0.6-2-0.4-4.2,0.6-6c1-1.9,2.6-3.2,4.7-3.8
		C683.9,111.4,684.7,111.3,685.5,111.3 M685.5,110.8c-0.8,0-1.6,0.1-2.4,0.4c-4.4,1.4-6.9,6-5.6,10.5c1.1,3.6,4.4,6,8,6
		c0.8,0,1.6-0.1,2.4-0.4c4.4-1.4,6.9-6,5.6-10.5C692.4,113.1,689.1,110.8,685.5,110.8L685.5,110.8z"/>
</g>
<g>
	<path class="st6" d="M679.7,149.3c-3.6,0-6.7-2.3-7.8-5.8c-0.6-2.1-0.4-4.3,0.6-6.2c1-1.9,2.7-3.3,4.8-4c0.8-0.2,1.6-0.4,2.4-0.4
		c3.6,0,6.7,2.3,7.8,5.8c0.6,2.1,0.4,4.3-0.6,6.2c-1,1.9-2.7,3.3-4.8,4C681.3,149.2,680.5,149.3,679.7,149.3z"/>
	<path class="st5" d="M679.7,133.2L679.7,133.2c3.5,0,6.5,2.2,7.5,5.6c1.3,4.2-1.1,8.6-5.3,9.9c-0.8,0.2-1.5,0.3-2.3,0.3
		c-3.5,0-6.5-2.2-7.5-5.6c-1.3-4.2,1.1-8.6,5.3-9.9C678.1,133.3,678.9,133.2,679.7,133.2 M679.7,132.7c-0.8,0-1.6,0.1-2.4,0.4
		c-4.4,1.4-6.9,6-5.6,10.5c1.1,3.6,4.4,6,8,6c0.8,0,1.6-0.1,2.4-0.4c4.4-1.4,6.9-6,5.6-10.5C686.6,135.1,683.3,132.7,679.7,132.7
		L679.7,132.7z"/>
</g>
<g>
	<path class="st6" d="M699.7,165.8c-3.6,0-6.7-2.3-7.8-5.8c-0.6-2.1-0.4-4.3,0.6-6.2c1-1.9,2.7-3.3,4.8-4c0.8-0.2,1.6-0.4,2.4-0.4
		c3.6,0,6.7,2.3,7.8,5.8c1.3,4.3-1.1,8.9-5.4,10.2C701.3,165.6,700.5,165.8,699.7,165.8z"/>
	<path class="st5" d="M699.8,149.7L699.8,149.7c3.5,0,6.5,2.2,7.5,5.6c1.3,4.2-1.1,8.6-5.3,9.9c-0.8,0.2-1.5,0.3-2.3,0.3
		c-3.5,0-6.5-2.2-7.5-5.6c-0.6-2-0.4-4.2,0.6-6c1-1.9,2.6-3.2,4.7-3.8C698.2,149.8,699,149.7,699.8,149.7 M699.8,149.2
		c-0.8,0-1.6,0.1-2.4,0.4c-4.4,1.4-6.9,6-5.6,10.5c1.1,3.6,4.4,6,8,6c0.8,0,1.6-0.1,2.4-0.4c4.4-1.4,6.9-6,5.6-10.5
		C706.7,151.5,703.3,149.2,699.8,149.2L699.8,149.2z"/>
</g>
<g>
	<path class="st4" d="M706.9,171.2c-3.6,0-6.7-2.3-7.8-5.8c-0.6-2.1-0.4-4.3,0.6-6.2c1-1.9,2.7-3.3,4.8-4c0.8-0.2,1.6-0.4,2.4-0.4
		c3.6,0,6.7,2.3,7.8,5.8c1.3,4.3-1.1,8.9-5.4,10.2C708.5,171.1,707.7,171.2,706.9,171.2z"/>
	<path class="st5" d="M706.9,155.2L706.9,155.2c3.5,0,6.5,2.2,7.5,5.6c1.3,4.2-1.1,8.6-5.3,9.9c-0.8,0.2-1.5,0.3-2.3,0.3
		c-3.5,0-6.5-2.2-7.5-5.6c-1.3-4.2,1.1-8.6,5.3-9.9C705.4,155.3,706.2,155.2,706.9,155.2 M706.9,154.7c-0.8,0-1.6,0.1-2.4,0.4
		c-4.4,1.4-6.9,6-5.6,10.5c1.1,3.6,4.4,6,8,6c0.8,0,1.6-0.1,2.4-0.4c4.4-1.4,6.9-6,5.6-10.5C713.9,157,710.5,154.7,706.9,154.7
		L706.9,154.7z"/>
</g>
<g>
	<path class="st6" d="M507.3,222.6c-3.6,0-6.7-2.3-7.8-5.8c-1.3-4.3,1.1-8.9,5.4-10.2c0.8-0.2,1.6-0.4,2.4-0.4
		c3.6,0,6.7,2.3,7.8,5.8c0.6,2.1,0.4,4.3-0.6,6.2c-1,1.9-2.7,3.3-4.8,4C508.9,222.4,508.1,222.6,507.3,222.6z"/>
	<path class="st5" d="M507.3,206.5L507.3,206.5c3.5,0,6.5,2.2,7.5,5.6c0.6,2,0.4,4.2-0.6,6c-1,1.9-2.6,3.2-4.7,3.8
		c-0.8,0.2-1.5,0.3-2.3,0.3c-3.5,0-6.5-2.2-7.5-5.6c-0.6-2-0.4-4.2,0.6-6c1-1.9,2.6-3.2,4.7-3.8
		C505.8,206.6,506.6,206.5,507.3,206.5 M507.3,206c-0.8,0-1.6,0.1-2.4,0.4c-4.4,1.4-6.9,6-5.6,10.5c1.1,3.6,4.4,6,8,6
		c0.8,0,1.6-0.1,2.4-0.4c4.4-1.4,6.9-6,5.6-10.5C514.3,208.3,510.9,206,507.3,206L507.3,206z"/>
</g>
<g>
	<path class="st6" d="M490.3,171.8c-3.6,0-6.7-2.3-7.8-5.8c-0.6-2.1-0.4-4.3,0.6-6.2c1-1.9,2.7-3.3,4.8-4c0.8-0.2,1.6-0.4,2.4-0.4
		c3.6,0,6.7,2.3,7.8,5.8c0.6,2.1,0.4,4.3-0.6,6.2c-1,1.9-2.7,3.3-4.8,4C491.9,171.7,491.1,171.8,490.3,171.8z"/>
	<path class="st5" d="M490.3,155.8L490.3,155.8c3.5,0,6.5,2.2,7.5,5.6c0.6,2,0.4,4.2-0.6,6c-1,1.9-2.6,3.2-4.7,3.8
		c-0.8,0.2-1.5,0.3-2.3,0.3c-3.5,0-6.5-2.2-7.5-5.6c-1.3-4.2,1.1-8.6,5.3-9.9C488.8,155.9,489.5,155.8,490.3,155.8 M490.3,155.3
		c-0.8,0-1.6,0.1-2.4,0.4c-4.4,1.4-6.9,6-5.6,10.5c1.1,3.6,4.4,6,8,6c0.8,0,1.6-0.1,2.4-0.4c4.4-1.4,6.9-6,5.6-10.5
		C497.2,157.6,493.9,155.3,490.3,155.3L490.3,155.3z"/>
</g>
<g>
	<path class="st6" d="M227,211.5c-3.6,0-6.7-2.3-7.8-5.8c-0.6-2.1-0.4-4.3,0.6-6.2c1-1.9,2.7-3.3,4.8-4c0.8-0.2,1.6-0.4,2.4-0.4
		c3.6,0,6.7,2.3,7.8,5.8c0.6,2.1,0.4,4.3-0.6,6.2c-1,1.9-2.7,3.3-4.8,4C228.6,211.4,227.8,211.5,227,211.5z"/>
	<path class="st5" d="M227,195.4L227,195.4c3.5,0,6.5,2.2,7.5,5.6c0.6,2,0.4,4.2-0.6,6c-1,1.9-2.6,3.2-4.7,3.8
		c-0.8,0.2-1.5,0.3-2.3,0.3c-3.5,0-6.5-2.2-7.5-5.6c-1.3-4.2,1.1-8.6,5.3-9.9C225.4,195.6,226.2,195.4,227,195.4 M227,194.9
		c-0.8,0-1.6,0.1-2.4,0.4c-4.4,1.4-6.9,6-5.6,10.5c1.1,3.6,4.4,6,8,6c0.8,0,1.6-0.1,2.4-0.4c4.4-1.4,6.9-6,5.6-10.5
		C233.9,197.3,230.6,194.9,227,194.9L227,194.9z"/>
</g>
<g>
	<path class="st6" d="M121.2,186.4c-3.6,0-6.7-2.3-7.8-5.8c-1.3-4.3,1.1-8.9,5.4-10.2c0.8-0.2,1.6-0.4,2.4-0.4
		c3.6,0,6.7,2.3,7.8,5.8c0.6,2.1,0.4,4.3-0.6,6.2c-1,1.9-2.7,3.3-4.8,4C122.8,186.3,122,186.4,121.2,186.4z"/>
	<path class="st5" d="M121.2,170.4L121.2,170.4c3.5,0,6.5,2.2,7.5,5.6c1.3,4.2-1.1,8.6-5.3,9.9c-0.8,0.2-1.5,0.3-2.3,0.3
		c-3.5,0-6.5-2.2-7.5-5.6c-0.6-2-0.4-4.2,0.6-6c1-1.9,2.6-3.2,4.7-3.8C119.7,170.5,120.5,170.4,121.2,170.4 M121.2,169.9
		c-0.8,0-1.6,0.1-2.4,0.4c-4.4,1.4-6.9,6-5.6,10.5c1.1,3.6,4.4,6,8,6c0.8,0,1.6-0.1,2.4-0.4c4.4-1.4,6.9-6,5.6-10.5
		C128.2,172.2,124.8,169.9,121.2,169.9L121.2,169.9z"/>
</g>
<g>
	<path class="st6" d="M96.9,236.2c-3.6,0-6.7-2.3-7.8-5.8c-0.6-2.1-0.4-4.3,0.6-6.2c1-1.9,2.7-3.3,4.8-4c0.8-0.2,1.6-0.4,2.4-0.4
		c3.6,0,6.7,2.3,7.8,5.8c0.6,2.1,0.4,4.3-0.6,6.2c-1,1.9-2.7,3.3-4.8,4C98.5,236.1,97.7,236.2,96.9,236.2z"/>
	<path class="st5" d="M96.9,220.2L96.9,220.2c3.5,0,6.5,2.2,7.5,5.6c0.6,2,0.4,4.2-0.6,6c-1,1.9-2.6,3.2-4.7,3.8
		c-0.8,0.2-1.5,0.3-2.3,0.3c-3.5,0-6.5-2.2-7.5-5.6c-0.6-2-0.4-4.2,0.6-6c1-1.9,2.6-3.2,4.7-3.8C95.3,220.3,96.1,220.2,96.9,220.2
		 M96.9,219.7c-0.8,0-1.6,0.1-2.4,0.4c-4.4,1.4-6.9,6-5.6,10.5c1.1,3.6,4.4,6,8,6c0.8,0,1.6-0.1,2.4-0.4c4.4-1.4,6.9-6,5.6-10.5
		C103.8,222,100.5,219.7,96.9,219.7L96.9,219.7z"/>
</g>
<g>
	<path class="st6" d="M229.3,96.7c-3.6,0-6.7-2.3-7.8-5.8c-0.6-2.1-0.4-4.3,0.6-6.2c1-1.9,2.7-3.3,4.8-4c0.8-0.2,1.6-0.4,2.4-0.4
		c3.6,0,6.7,2.3,7.8,5.8c1.3,4.3-1.1,8.9-5.4,10.2C230.9,96.6,230.1,96.7,229.3,96.7z"/>
	<path class="st5" d="M229.3,80.7L229.3,80.7c3.5,0,6.5,2.2,7.5,5.6c1.3,4.2-1.1,8.6-5.3,9.9c-0.8,0.2-1.5,0.3-2.3,0.3
		c-3.5,0-6.5-2.2-7.5-5.6c-1.3-4.2,1.1-8.6,5.3-9.9C227.8,80.8,228.5,80.7,229.3,80.7 M229.3,80.2c-0.8,0-1.6,0.1-2.4,0.4
		c-4.4,1.4-6.9,6-5.6,10.5c1.1,3.6,4.4,6,8,6c0.8,0,1.6-0.1,2.4-0.4c4.4-1.4,6.9-6,5.6-10.5C236.2,82.5,232.9,80.2,229.3,80.2
		L229.3,80.2z"/>
</g>
<g>
	<path class="st6" d="M657.9,71.4c-3.6,0-6.7-2.3-7.8-5.8c-1.3-4.3,1.1-8.9,5.4-10.2c0.8-0.2,1.6-0.4,2.4-0.4c3.6,0,6.7,2.3,7.8,5.8
		c0.6,2.1,0.4,4.3-0.6,6.2c-1,1.9-2.7,3.3-4.8,4C659.5,71.3,658.7,71.4,657.9,71.4z"/>
	<path class="st5" d="M657.9,55.4L657.9,55.4c3.5,0,6.5,2.2,7.5,5.6c0.6,2,0.4,4.2-0.6,6c-1,1.9-2.6,3.2-4.7,3.8
		c-0.8,0.2-1.5,0.3-2.3,0.3c-3.5,0-6.5-2.2-7.5-5.6c-0.6-2-0.4-4.2,0.6-6c1-1.9,2.6-3.2,4.7-3.8C656.3,55.5,657.1,55.4,657.9,55.4
		 M657.9,54.9c-0.8,0-1.6,0.1-2.4,0.4c-4.4,1.4-6.9,6-5.6,10.5c1.1,3.6,4.4,6,8,6c0.8,0,1.6-0.1,2.4-0.4c4.4-1.4,6.9-6,5.6-10.5
		C664.8,57.2,661.5,54.9,657.9,54.9L657.9,54.9z"/>
</g>
<g>
	<path class="st6" d="M691.4,175.7c-3.6,0-6.7-2.3-7.8-5.8c-1.3-4.3,1.1-8.9,5.4-10.2c0.8-0.2,1.6-0.4,2.4-0.4
		c3.6,0,6.7,2.3,7.8,5.8c1.3,4.3-1.1,8.9-5.4,10.2C693,175.6,692.2,175.7,691.4,175.7z"/>
	<path class="st5" d="M691.4,159.7L691.4,159.7c3.5,0,6.5,2.2,7.5,5.6c1.3,4.2-1.1,8.6-5.3,9.9c-0.8,0.2-1.5,0.3-2.3,0.3
		c-3.5,0-6.5-2.2-7.5-5.6c-0.6-2-0.4-4.2,0.6-6c1-1.9,2.6-3.2,4.7-3.8C689.9,159.8,690.6,159.7,691.4,159.7 M691.4,159.2
		c-0.8,0-1.6,0.1-2.4,0.4c-4.4,1.4-6.9,6-5.6,10.5c1.1,3.6,4.4,6,8,6c0.8,0,1.6-0.1,2.4-0.4c4.4-1.4,6.9-6,5.6-10.5
		C698.4,161.5,695,159.2,691.4,159.2L691.4,159.2z"/>
</g>
<g>
	<path class="st6" d="M208.2,121.1c-3.6,0-6.7-2.3-7.8-5.8c-1.3-4.3,1.1-8.9,5.4-10.2c0.8-0.2,1.6-0.4,2.4-0.4
		c3.6,0,6.7,2.3,7.8,5.8c0.6,2.1,0.4,4.3-0.6,6.2s-2.7,3.3-4.8,4C209.8,120.9,209,121.1,208.2,121.1z"/>
	<path class="st5" d="M208.2,105L208.2,105c3.5,0,6.5,2.2,7.5,5.6c1.3,4.2-1.1,8.6-5.3,9.9c-0.8,0.2-1.5,0.3-2.3,0.3
		c-3.5,0-6.5-2.2-7.5-5.6c-1.3-4.2,1.1-8.6,5.3-9.9C206.7,105.1,207.4,105,208.2,105 M208.2,104.5c-0.8,0-1.6,0.1-2.4,0.4
		c-4.4,1.4-6.9,6-5.6,10.5c1.1,3.6,4.4,6,8,6c0.8,0,1.6-0.1,2.4-0.4c4.4-1.4,6.9-6,5.6-10.5C215.1,106.8,211.8,104.5,208.2,104.5
		L208.2,104.5z"/>
</g>
<g>
	<path class="st4" d="M772.3,147.5c-5.8,0-10.8-3.7-12.5-9.2c-2.1-6.9,1.8-14.2,8.7-16.3c1.2-0.4,2.5-0.6,3.8-0.6
		c5.8,0,10.8,3.7,12.5,9.2c2.1,6.9-1.8,14.2-8.7,16.3C774.9,147.3,773.6,147.5,772.3,147.5z"/>
	<path class="st5" d="M772.4,121.7L772.4,121.7c5.7,0,10.6,3.6,12.2,9.1c1,3.3,0.7,6.7-0.9,9.8c-1.6,3-4.3,5.2-7.6,6.2
		c-1.2,0.4-2.5,0.6-3.7,0.6c-5.7,0-10.6-3.6-12.2-9.1c-2.1-6.8,1.8-13.9,8.5-16C769.8,121.9,771.1,121.7,772.4,121.7 M772.4,121.2
		c-1.3,0-2.6,0.2-3.9,0.6c-7,2.1-11,9.6-8.8,16.6c1.7,5.7,7,9.4,12.7,9.4c1.3,0,2.6-0.2,3.9-0.6c7-2.1,11-9.6,8.8-16.6
		C783.3,124.9,778.1,121.2,772.4,121.2L772.4,121.2z"/>
</g>
<g>
	<path class="st4" d="M434.7,220.3c-5.8,0-10.8-3.7-12.5-9.2c-2.1-6.9,1.8-14.2,8.7-16.3c1.2-0.4,2.5-0.6,3.8-0.6
		c5.8,0,10.8,3.7,12.5,9.2c2.1,6.9-1.8,14.2-8.7,16.3C437.2,220.1,436,220.3,434.7,220.3z"/>
	<path class="st5" d="M434.7,194.4L434.7,194.4c5.7,0,10.6,3.6,12.2,9.1c2.1,6.8-1.8,13.9-8.5,16c-1.2,0.4-2.5,0.6-3.7,0.6
		c-5.7,0-10.6-3.6-12.2-9.1c-1-3.3-0.7-6.7,0.9-9.8s4.3-5.2,7.6-6.2C432.2,194.6,433.4,194.4,434.7,194.4 M434.7,193.9
		c-1.3,0-2.6,0.2-3.9,0.6c-7,2.1-11,9.6-8.8,16.6c1.7,5.7,7,9.4,12.7,9.4c1.3,0,2.6-0.2,3.9-0.6c7-2.1,11-9.6,8.8-16.6
		C445.7,197.6,440.4,193.9,434.7,193.9L434.7,193.9z"/>
</g>
<g>
	<path class="st6" d="M747.5,161.7c-1.6,0-2.9-1-3.4-2.5c-0.3-0.9-0.2-1.9,0.3-2.7s1.2-1.4,2.1-1.7c0.3-0.1,0.7-0.2,1-0.2
		c1.6,0,2.9,1,3.4,2.5c0.6,1.9-0.5,3.8-2.4,4.4C748.2,161.6,747.8,161.7,747.5,161.7z"/>
	<path class="st5" d="M747.5,154.9L747.5,154.9c1.5,0,2.7,0.9,3.1,2.3c0.5,1.7-0.5,3.6-2.2,4.1c-0.3,0.1-0.6,0.1-1,0.1
		c-1.5,0-2.7-0.9-3.1-2.3c-0.3-0.8-0.2-1.7,0.2-2.5c0.4-0.8,1.1-1.3,1.9-1.6C746.9,154.9,747.2,154.9,747.5,154.9 M747.5,154.4
		c-0.4,0-0.7,0.1-1.1,0.2c-2,0.6-3.1,2.7-2.5,4.7c0.5,1.6,2,2.7,3.6,2.7c0.4,0,0.7-0.1,1.1-0.2c2-0.6,3.1-2.7,2.5-4.7
		C750.6,155.4,749.1,154.4,747.5,154.4L747.5,154.4z"/>
</g>
<g>
	<path class="st6" d="M739.9,196.6c-3.5,0-6.5-2.2-7.5-5.6c-0.6-2-0.4-4.1,0.6-6c1-1.9,2.6-3.2,4.6-3.8c0.7-0.2,1.5-0.3,2.3-0.3
		c3.5,0,6.5,2.2,7.5,5.6c0.6,2,0.4,4.1-0.6,6c-1,1.9-2.6,3.2-4.6,3.8C741.4,196.5,740.6,196.6,739.9,196.6z"/>
	<path class="st5" d="M739.9,181.1L739.9,181.1c3.4,0,6.3,2.2,7.3,5.4c1.2,4-1,8.3-5.1,9.5c-0.7,0.2-1.5,0.3-2.2,0.3
		c-3.4,0-6.3-2.2-7.3-5.4c-0.6-1.9-0.4-4,0.6-5.8c1-1.8,2.6-3.1,4.5-3.7C738.4,181.2,739.1,181.1,739.9,181.1 M739.9,180.6
		c-0.8,0-1.6,0.1-2.4,0.4c-4.3,1.3-6.7,5.8-5.4,10.1c1.1,3.5,4.3,5.7,7.8,5.7c0.8,0,1.6-0.1,2.4-0.4c4.3-1.3,6.7-5.8,5.4-10.1
		C746.6,182.9,743.3,180.6,739.9,180.6L739.9,180.6z"/>
</g>
<g>
	<path class="st6" d="M761.8,203.6c-2,0-3.8-1.3-4.4-3.3c-0.7-2.4,0.6-5,3.1-5.8c0.4-0.1,0.9-0.2,1.3-0.2c2,0,3.8,1.3,4.4,3.3
		c0.7,2.4-0.6,5-3.1,5.8C762.7,203.6,762.3,203.6,761.8,203.6z"/>
	<path class="st5" d="M761.8,194.6L761.8,194.6c1.9,0,3.6,1.2,4.2,3.1c0.3,1.1,0.2,2.3-0.3,3.3c-0.5,1-1.5,1.8-2.6,2.1
		c-0.4,0.1-0.8,0.2-1.3,0.2c-1.9,0-3.6-1.2-4.2-3.1c-0.3-1.1-0.2-2.3,0.3-3.3c0.5-1,1.5-1.8,2.6-2.1
		C761,194.7,761.4,194.6,761.8,194.6 M761.8,194.1c-0.5,0-0.9,0.1-1.4,0.2c-2.6,0.8-4,3.5-3.2,6.1c0.6,2.1,2.6,3.4,4.7,3.4
		c0.5,0,0.9-0.1,1.4-0.2c2.6-0.8,4-3.5,3.2-6.1C765.8,195.5,763.9,194.1,761.8,194.1L761.8,194.1z"/>
</g>
<g>
	<path class="st6" d="M731.1,198.6c-2,0-3.8-1.3-4.4-3.3c-0.4-1.2-0.2-2.4,0.3-3.5c0.6-1.1,1.5-1.9,2.7-2.2c0.4-0.1,0.9-0.2,1.3-0.2
		c2,0,3.8,1.3,4.4,3.3c0.7,2.4-0.6,5-3.1,5.8C732,198.5,731.5,198.6,731.1,198.6z"/>
	<path class="st5" d="M731.1,189.6L731.1,189.6c1.9,0,3.6,1.2,4.2,3.1c0.3,1.1,0.2,2.3-0.3,3.3c-0.5,1-1.5,1.8-2.6,2.1
		c-0.4,0.1-0.8,0.2-1.3,0.2c-1.9,0-3.6-1.2-4.2-3.1c-0.7-2.3,0.6-4.7,2.9-5.4C730.2,189.6,730.6,189.6,731.1,189.6 M731.1,189.1
		c-0.5,0-0.9,0.1-1.4,0.2c-2.6,0.8-4,3.5-3.2,6.1c0.6,2.1,2.6,3.4,4.7,3.4c0.5,0,0.9-0.1,1.4-0.2c2.6-0.8,4-3.5,3.2-6.1
		C735.1,190.4,733.2,189.1,731.1,189.1L731.1,189.1z"/>
</g>
<g>
	<path class="st6" d="M735.3,212.4c-2,0-3.8-1.3-4.4-3.3c-0.7-2.4,0.6-5,3.1-5.8c0.4-0.1,0.9-0.2,1.3-0.2c2,0,3.8,1.3,4.4,3.3
		c0.7,2.4-0.6,5-3.1,5.8C736.2,212.3,735.7,212.4,735.3,212.4z"/>
	<path class="st5" d="M735.3,203.4L735.3,203.4c1.9,0,3.6,1.2,4.2,3.1c0.3,1.1,0.2,2.3-0.3,3.3c-0.5,1-1.5,1.8-2.6,2.1
		c-0.4,0.1-0.8,0.2-1.3,0.2c-1.9,0-3.6-1.2-4.2-3.1c-0.3-1.1-0.2-2.3,0.3-3.3c0.5-1,1.5-1.8,2.6-2.1
		C734.4,203.4,734.9,203.4,735.3,203.4 M735.3,202.9c-0.5,0-0.9,0.1-1.4,0.2c-2.6,0.8-4,3.5-3.2,6.1c0.6,2.1,2.6,3.4,4.7,3.4
		c0.5,0,0.9-0.1,1.4-0.2c2.6-0.8,4-3.5,3.2-6.1C739.3,204.2,737.4,202.9,735.3,202.9L735.3,202.9z"/>
</g>
<g>
	<path class="st6" d="M573.4,431.8c-2,0-3.8-1.3-4.4-3.3c-0.4-1.2-0.2-2.4,0.3-3.5c0.6-1.1,1.5-1.9,2.7-2.2c0.4-0.1,0.9-0.2,1.3-0.2
		c2,0,3.8,1.3,4.4,3.3c0.7,2.4-0.6,5-3.1,5.8C574.3,431.7,573.8,431.8,573.4,431.8z"/>
	<path class="st5" d="M573.4,422.8L573.4,422.8c1.9,0,3.6,1.2,4.2,3.1c0.3,1.1,0.2,2.3-0.3,3.3c-0.5,1-1.5,1.8-2.6,2.1
		c-0.4,0.1-0.8,0.2-1.3,0.2c-1.9,0-3.6-1.2-4.2-3.1c-0.7-2.3,0.6-4.7,2.9-5.4C572.5,422.9,573,422.8,573.4,422.8 M573.4,422.3
		c-0.5,0-0.9,0.1-1.4,0.2c-2.6,0.8-4,3.5-3.2,6.1c0.6,2.1,2.6,3.4,4.7,3.4c0.5,0,0.9-0.1,1.4-0.2c2.6-0.8,4-3.5,3.2-6.1
		C577.4,423.7,575.5,422.3,573.4,422.3L573.4,422.3z"/>
</g>
<g>
	<path class="st6" d="M600.4,446.2c-2,0-3.8-1.3-4.4-3.3c-0.7-2.4,0.6-5,3.1-5.8c0.4-0.1,0.9-0.2,1.3-0.2c2,0,3.8,1.3,4.4,3.3
		c0.4,1.2,0.2,2.4-0.3,3.5s-1.5,1.9-2.7,2.2C601.3,446.1,600.8,446.2,600.4,446.2z"/>
	<path class="st5" d="M600.4,437.2L600.4,437.2c1.9,0,3.6,1.2,4.2,3.1c0.3,1.1,0.2,2.3-0.3,3.3c-0.5,1-1.5,1.8-2.6,2.1
		c-0.4,0.1-0.8,0.2-1.3,0.2c-1.9,0-3.6-1.2-4.2-3.1c-0.7-2.3,0.6-4.7,2.9-5.4C599.5,437.3,600,437.2,600.4,437.2 M600.4,436.7
		c-0.5,0-0.9,0.1-1.4,0.2c-2.6,0.8-4,3.5-3.2,6.1c0.6,2.1,2.6,3.4,4.7,3.4c0.5,0,0.9-0.1,1.4-0.2c2.6-0.8,4-3.5,3.2-6.1
		C604.4,438,602.5,436.7,600.4,436.7L600.4,436.7z"/>
</g>
<g>
	<path class="st6" d="M611.6,408.8c-2,0-3.8-1.3-4.4-3.3c-0.4-1.2-0.2-2.4,0.3-3.5c0.6-1.1,1.5-1.9,2.7-2.2c0.4-0.1,0.9-0.2,1.3-0.2
		c2,0,3.8,1.3,4.4,3.3c0.4,1.2,0.2,2.4-0.3,3.5s-1.5,1.9-2.7,2.2C612.5,408.8,612.1,408.8,611.6,408.8z"/>
	<path class="st5" d="M611.6,399.9L611.6,399.9c1.9,0,3.6,1.2,4.2,3.1c0.7,2.3-0.6,4.7-2.9,5.4c-0.4,0.1-0.8,0.2-1.3,0.2
		c-1.9,0-3.6-1.2-4.2-3.1c-0.3-1.1-0.2-2.3,0.3-3.3c0.5-1,1.5-1.8,2.6-2.1C610.8,399.9,611.2,399.9,611.6,399.9 M611.6,399.4
		c-0.5,0-0.9,0.1-1.4,0.2c-2.6,0.8-4,3.5-3.2,6.1c0.6,2.1,2.6,3.4,4.7,3.4c0.5,0,0.9-0.1,1.4-0.2c2.6-0.8,4-3.5,3.2-6.1
		C615.6,400.7,613.7,399.4,611.6,399.4L611.6,399.4z"/>
</g>
<g>
	<path class="st6" d="M156.2,177.6c-0.7,0-1.4-0.1-2.2-0.2c-7.2-1.2-12.1-8-11-15.2c1.1-6.4,6.6-11.1,13.1-11.1
		c0.7,0,1.4,0.1,2.2,0.2c3.5,0.6,6.6,2.5,8.6,5.3c2.1,2.9,2.9,6.4,2.3,9.9C168.2,172.9,162.7,177.6,156.2,177.6z"/>
	<path class="st5" d="M156.1,151.3L156.1,151.3c0.7,0,1.4,0.1,2.1,0.2c3.4,0.6,6.4,2.4,8.5,5.2c2,2.8,2.8,6.3,2.3,9.7
		c-1,6.3-6.4,10.9-12.8,10.9c-0.7,0-1.4-0.1-2.1-0.2c-7.1-1.2-11.9-7.9-10.7-14.9C144.4,155.9,149.7,151.3,156.1,151.3 M156.1,150.8
		c-6.5,0-12.2,4.7-13.3,11.3c-1.2,7.4,3.8,14.3,11.2,15.5c0.7,0.1,1.5,0.2,2.2,0.2c6.5,0,12.2-4.7,13.3-11.3
		c1.2-7.4-3.8-14.3-11.2-15.5C157.6,150.9,156.9,150.8,156.1,150.8L156.1,150.8z"/>
</g>
<g>
	<path class="st6" d="M156.5,194.5c-0.5,0-1.1,0-1.6-0.1c-5.5-0.9-9.2-6.1-8.3-11.5c0.8-4.9,5-8.4,9.9-8.4c0.5,0,1.1,0,1.6,0.1
		c2.6,0.4,5,1.9,6.5,4c1.6,2.2,2.2,4.8,1.8,7.5C165.6,190.9,161.5,194.5,156.5,194.5z"/>
	<path class="st5" d="M156.5,174.7L156.5,174.7c0.5,0,1.1,0,1.6,0.1c5.3,0.9,8.9,5.9,8.1,11.2c-0.8,4.7-4.8,8.2-9.6,8.2
		c-0.5,0-1.1,0-1.6-0.1c-2.6-0.4-4.8-1.8-6.4-3.9c-1.5-2.1-2.1-4.7-1.7-7.3C147.7,178.1,151.7,174.7,156.5,174.7 M156.5,174.2
		c-4.9,0-9.3,3.6-10.1,8.6c-0.9,5.6,2.9,10.9,8.5,11.8c0.6,0.1,1.1,0.1,1.7,0.1c4.9,0,9.3-3.6,10.1-8.6c0.9-5.6-2.9-10.9-8.5-11.8
		C157.6,174.2,157.1,174.2,156.5,174.2L156.5,174.2z"/>
</g>
<g>
	<path class="st4" d="M85.9,423.3c-1,0-2-0.1-3-0.2c-4.8-0.8-9-3.4-11.9-7.4c-2.8-4-4-8.8-3.2-13.6c1.4-8.9,9-15.3,18-15.3
		c1,0,2,0.1,3,0.2c9.9,1.6,16.7,11,15.1,20.9C102.4,416.9,94.9,423.3,85.9,423.3z"/>
	<path class="st5" d="M85.9,387.1L85.9,387.1c1,0,2,0.1,2.9,0.2c4.7,0.8,8.9,3.4,11.7,7.3c2.8,3.9,3.9,8.7,3.1,13.4
		c-1.4,8.7-8.9,15.1-17.7,15.1c-1,0-2-0.1-2.9-0.2c-9.8-1.6-16.5-10.9-14.9-20.7C69.6,393.4,77,387.1,85.9,387.1 M85.9,386.6
		c-8.9,0-16.7,6.4-18.2,15.5c-1.6,10.1,5.2,19.6,15.3,21.2c1,0.2,2,0.2,3,0.2c8.9,0,16.7-6.4,18.2-15.5c1.6-10.1-5.2-19.6-15.3-21.2
		C87.9,386.7,86.9,386.6,85.9,386.6L85.9,386.6z"/>
</g>
<g>
	<path class="st6" d="M135.5,196.1c-0.3,0-0.6,0-1-0.1c-3.2-0.5-5.4-3.6-4.9-6.8c0.5-2.9,2.9-5,5.8-5c0.3,0,0.6,0,1,0.1
		c3.2,0.5,5.4,3.6,4.9,6.8C140.9,194,138.4,196.1,135.5,196.1z"/>
	<path class="st5" d="M135.5,184.5L135.5,184.5c0.3,0,0.6,0,0.9,0.1c1.5,0.2,2.8,1.1,3.7,2.3s1.2,2.7,1,4.2
		c-0.4,2.8-2.8,4.8-5.6,4.8c-0.3,0-0.6,0-0.9-0.1c-3.1-0.5-5.2-3.4-4.7-6.5C130.4,186.5,132.7,184.5,135.5,184.5 M135.5,184
		c-3,0-5.6,2.1-6.1,5.2c-0.5,3.4,1.7,6.5,5.1,7.1c0.3,0.1,0.7,0.1,1,0.1c3,0,5.6-2.1,6.1-5.2c0.5-3.4-1.7-6.5-5.1-7.1
		C136.2,184,135.8,184,135.5,184L135.5,184z"/>
</g>
<g>
	<path class="st6" d="M142.6,183.9c-0.2,0-0.4,0-0.6,0c-0.9-0.2-1.7-0.7-2.3-1.4c-0.6-0.8-0.8-1.7-0.6-2.6c0.3-1.7,1.7-3,3.5-3
		c0.2,0,0.4,0,0.6,0c1.9,0.3,3.2,2.1,2.9,4.1C145.8,182.6,144.3,183.9,142.6,183.9z"/>
	<path class="st5" d="M142.6,177.1L142.6,177.1c0.2,0,0.4,0,0.5,0c0.9,0.1,1.6,0.6,2.1,1.3s0.7,1.6,0.6,2.4
		c-0.3,1.6-1.6,2.8-3.2,2.8c-0.2,0-0.4,0-0.5,0c-0.9-0.1-1.6-0.6-2.1-1.3c-0.5-0.7-0.7-1.6-0.6-2.4
		C139.6,178.2,141,177.1,142.6,177.1 M142.6,176.6c-1.8,0-3.4,1.3-3.7,3.2c-0.3,2.1,1.1,4,3.1,4.3c0.2,0,0.4,0.1,0.6,0.1
		c1.8,0,3.4-1.3,3.7-3.2c0.3-2.1-1.1-4-3.1-4.3C143,176.6,142.8,176.6,142.6,176.6L142.6,176.6z"/>
</g>
<g>
	<path class="st6" d="M166.5,149.4c-0.2,0-0.4,0-0.6,0c-0.9-0.2-1.7-0.7-2.3-1.4s-0.8-1.7-0.6-2.6c0.3-1.7,1.7-3,3.5-3
		c0.2,0,0.4,0,0.6,0c0.9,0.2,1.7,0.7,2.3,1.4s0.8,1.7,0.6,2.6C169.7,148.2,168.2,149.4,166.5,149.4z"/>
	<path class="st5" d="M166.5,142.6L166.5,142.6c0.2,0,0.4,0,0.5,0c0.9,0.1,1.6,0.6,2.1,1.3s0.7,1.6,0.6,2.4
		c-0.3,1.6-1.6,2.8-3.2,2.8c-0.2,0-0.4,0-0.5,0c-0.9-0.1-1.6-0.6-2.1-1.3c-0.5-0.7-0.7-1.6-0.6-2.4
		C163.5,143.8,164.9,142.6,166.5,142.6 M166.5,142.1c-1.8,0-3.4,1.3-3.7,3.2c-0.3,2.1,1.1,4,3.1,4.3c0.2,0,0.4,0.1,0.6,0.1
		c1.8,0,3.4-1.3,3.7-3.2c0.3-2.1-1.1-4-3.1-4.3C166.9,142.1,166.7,142.1,166.5,142.1L166.5,142.1z"/>
</g>
<g>
	<path class="st6" d="M156.4,133.2c-0.2,0-0.4,0-0.6,0c-0.9-0.2-1.7-0.7-2.3-1.4c-0.6-0.8-0.8-1.7-0.6-2.6c0.3-1.7,1.7-3,3.5-3
		c0.2,0,0.4,0,0.6,0c1.9,0.3,3.2,2.1,2.9,4.1C159.6,131.9,158.1,133.2,156.4,133.2z"/>
	<path class="st5" d="M156.3,126.4L156.3,126.4c0.2,0,0.4,0,0.5,0c0.9,0.1,1.6,0.6,2.1,1.3c0.5,0.7,0.7,1.6,0.6,2.4
		c-0.3,1.6-1.6,2.8-3.2,2.8c-0.2,0-0.4,0-0.5,0c-0.9-0.1-1.6-0.6-2.1-1.3c-0.5-0.7-0.7-1.6-0.6-2.4
		C153.4,127.5,154.7,126.4,156.3,126.4 M156.3,125.9c-1.8,0-3.4,1.3-3.7,3.2c-0.3,2.1,1.1,4,3.1,4.3c0.2,0,0.4,0.1,0.6,0.1
		c1.8,0,3.4-1.3,3.7-3.2c0.3-2.1-1.1-4-3.1-4.3C156.8,125.9,156.5,125.9,156.3,125.9L156.3,125.9z"/>
</g>
<g>
	<path class="st6" d="M154.5,111c-0.2,0-0.4,0-0.6,0c-1.9-0.3-3.2-2.1-2.9-4.1c0.3-1.7,1.7-3,3.5-3c0.2,0,0.4,0,0.6,0
		c1.9,0.3,3.2,2.1,2.9,4.1C157.7,109.7,156.2,111,154.5,111z"/>
	<path class="st5" d="M154.5,104.1L154.5,104.1c0.2,0,0.4,0,0.5,0c0.9,0.1,1.6,0.6,2.1,1.3s0.7,1.6,0.6,2.4
		c-0.3,1.6-1.6,2.8-3.2,2.8c-0.2,0-0.4,0-0.5,0c-0.9-0.1-1.6-0.6-2.1-1.3c-0.5-0.7-0.7-1.6-0.6-2.4
		C151.5,105.3,152.9,104.1,154.5,104.1 M154.5,103.6c-1.8,0-3.4,1.3-3.7,3.2c-0.3,2.1,1.1,4,3.1,4.3c0.2,0,0.4,0.1,0.6,0.1
		c1.8,0,3.4-1.3,3.7-3.2c0.3-2.1-1.1-4-3.1-4.3C154.9,103.7,154.7,103.6,154.5,103.6L154.5,103.6z"/>
</g>
<g>
	<path class="st6" d="M174.6,181.8c-0.4,0-0.8,0-1.2-0.1c-1.9-0.3-3.6-1.3-4.7-2.9c-1.1-1.6-1.6-3.5-1.3-5.4c0.6-3.5,3.6-6,7.1-6
		c0.4,0,0.8,0,1.2,0.1c1.9,0.3,3.6,1.3,4.7,2.9c1.1,1.6,1.6,3.5,1.3,5.4C181.1,179.3,178.1,181.8,174.6,181.8z"/>
	<path class="st5" d="M174.6,167.7L174.6,167.7c0.4,0,0.8,0,1.1,0.1c1.8,0.3,3.4,1.3,4.5,2.8c1.1,1.5,1.5,3.4,1.2,5.2
		c-0.6,3.4-3.4,5.8-6.9,5.8c-0.4,0-0.8,0-1.1-0.1c-3.8-0.6-6.4-4.2-5.7-8C168.2,170.1,171.1,167.7,174.6,167.7 M174.6,167.2
		c-3.6,0-6.8,2.6-7.4,6.3c-0.7,4.1,2.1,7.9,6.2,8.6c0.4,0.1,0.8,0.1,1.2,0.1c3.6,0,6.8-2.6,7.4-6.3c0.7-4.1-2.1-7.9-6.2-8.6
		C175.4,167.2,175,167.2,174.6,167.2L174.6,167.2z"/>
</g>
<g>
	<path class="st6" d="M137.6,146.6c-0.4,0-0.9,0-1.3-0.1c-2.2-0.4-4-1.5-5.3-3.3s-1.8-3.9-1.4-6.1c0.6-4,4-6.9,8.1-6.9
		c0.4,0,0.9,0,1.3,0.1c4.5,0.7,7.5,4.9,6.8,9.4C145,143.7,141.6,146.6,137.6,146.6z"/>
	<path class="st5" d="M137.6,130.5L137.6,130.5c0.4,0,0.9,0,1.3,0.1c2.1,0.3,3.9,1.5,5.2,3.2s1.7,3.8,1.4,5.9
		c-0.6,3.9-3.9,6.7-7.8,6.7c-0.4,0-0.9,0-1.3-0.1c-4.3-0.7-7.3-4.8-6.6-9.1C130.4,133.3,133.7,130.5,137.6,130.5 M137.6,130
		c-4.1,0-7.6,2.9-8.3,7.1c-0.8,4.6,2.4,8.9,7,9.7c0.5,0.1,0.9,0.1,1.4,0.1c4.1,0,7.6-2.9,8.3-7.1c0.8-4.6-2.4-8.9-7-9.7
		C138.5,130,138,130,137.6,130L137.6,130z"/>
</g>
<g>
	<path class="st6" d="M164,119.8c-0.2,0-0.4,0-0.6,0c-0.9-0.2-1.7-0.7-2.3-1.4c-0.6-0.8-0.8-1.7-0.6-2.6c0.3-1.7,1.7-3,3.5-3
		c0.2,0,0.4,0,0.6,0c0.9,0.2,1.7,0.7,2.3,1.4c0.6,0.8,0.8,1.7,0.6,2.6C167.2,118.6,165.8,119.8,164,119.8z"/>
	<path class="st5" d="M164,113L164,113c0.2,0,0.4,0,0.5,0c0.9,0.1,1.6,0.6,2.1,1.3c0.5,0.7,0.7,1.6,0.6,2.4
		c-0.3,1.6-1.6,2.8-3.2,2.8c-0.2,0-0.4,0-0.5,0c-0.9-0.1-1.6-0.6-2.1-1.3c-0.5-0.7-0.7-1.6-0.6-2.4C161,114.2,162.4,113,164,113
		 M164,112.5c-1.8,0-3.4,1.3-3.7,3.2c-0.3,2.1,1.1,4,3.1,4.3c0.2,0,0.4,0.1,0.6,0.1c1.8,0,3.4-1.3,3.7-3.2c0.3-2.1-1.1-4-3.1-4.3
		C164.4,112.5,164.2,112.5,164,112.5L164,112.5z"/>
</g>
<g>
	<path class="st6" d="M188.1,144.5c-0.4,0-0.9,0-1.3-0.1c-2.1-0.3-3.9-1.5-5.1-3.2c-1.2-1.7-1.7-3.8-1.4-5.9
		c0.6-3.8,3.9-6.6,7.7-6.6c0.4,0,0.9,0,1.3,0.1c4.3,0.7,7.2,4.7,6.5,9C195.2,141.7,191.9,144.5,188.1,144.5z"/>
	<path class="st5" d="M188.1,129L188.1,129c0.4,0,0.8,0,1.2,0.1c4.1,0.7,7,4.6,6.3,8.7c-0.6,3.7-3.8,6.4-7.5,6.4
		c-0.4,0-0.8,0-1.2-0.1c-4.1-0.7-7-4.6-6.3-8.7C181.2,131.7,184.3,129,188.1,129 M188.1,128.5c-3.9,0-7.3,2.8-8,6.8
		c-0.7,4.4,2.3,8.6,6.7,9.3c0.4,0.1,0.9,0.1,1.3,0.1c3.9,0,7.3-2.8,8-6.8c0.7-4.4-2.3-8.6-6.7-9.3
		C188.9,128.6,188.5,128.5,188.1,128.5L188.1,128.5z"/>
</g>
<g>
	<path class="st6" d="M207,126.1c-0.2,0-0.5,0-0.8-0.1c-2.5-0.4-4.2-2.8-3.8-5.3c0.4-2.2,2.3-3.9,4.5-3.9c0.2,0,0.5,0,0.8,0.1
		c1.2,0.2,2.3,0.9,3,1.9s1,2.2,0.8,3.4C211.2,124.5,209.3,126.1,207,126.1z"/>
	<path class="st5" d="M207,117.1L207,117.1c0.2,0,0.5,0,0.7,0.1c2.4,0.4,4,2.6,3.6,5c-0.3,2.1-2.2,3.7-4.3,3.7c-0.2,0-0.5,0-0.7-0.1
		c-1.2-0.2-2.2-0.8-2.8-1.8c-0.7-0.9-1-2.1-0.8-3.3C203,118.7,204.8,117.1,207,117.1 M207,116.6c-2.3,0-4.4,1.7-4.8,4.1
		c-0.4,2.7,1.4,5.2,4,5.6c0.3,0,0.5,0.1,0.8,0.1c2.3,0,4.4-1.7,4.8-4.1c0.4-2.7-1.4-5.2-4-5.6C207.5,116.6,207.2,116.6,207,116.6
		L207,116.6z"/>
</g>
<g>
	<path class="st6" d="M211.6,97.6c-0.2,0-0.5,0-0.8-0.1c-1.2-0.2-2.3-0.9-3-1.9s-1-2.2-0.8-3.4c0.4-2.2,2.3-3.9,4.5-3.9
		c0.2,0,0.5,0,0.7,0.1c2.5,0.4,4.2,2.8,3.8,5.3C215.8,96,213.9,97.6,211.6,97.6z"/>
	<path class="st5" d="M211.6,88.7L211.6,88.7c0.2,0,0.5,0,0.7,0.1c2.4,0.4,4,2.6,3.6,5c-0.3,2.1-2.2,3.7-4.3,3.7
		c-0.2,0-0.5,0-0.7-0.1c-2.4-0.4-4-2.6-3.6-5C207.7,90.2,209.5,88.7,211.6,88.7 M211.6,88.2c-2.3,0-4.4,1.7-4.8,4.1
		c-0.4,2.7,1.4,5.2,4,5.6c0.3,0,0.5,0.1,0.8,0.1c2.3,0,4.4-1.7,4.8-4.1c0.4-2.7-1.4-5.2-4-5.6C212.2,88.2,211.9,88.2,211.6,88.2
		L211.6,88.2z"/>
</g>
<g>
	<path class="st6" d="M63.5,446.2c-0.2,0-0.5,0-0.8-0.1c-2.5-0.4-4.2-2.8-3.8-5.3c0.4-2.2,2.3-3.9,4.5-3.9c0.2,0,0.5,0,0.8,0.1
		c1.2,0.2,2.3,0.9,3,1.9s1,2.2,0.8,3.4C67.7,444.6,65.8,446.2,63.5,446.2z"/>
	<path class="st5" d="M63.5,437.2L63.5,437.2c0.2,0,0.5,0,0.7,0.1c2.4,0.4,4,2.6,3.6,5c-0.3,2.1-2.2,3.7-4.3,3.7
		c-0.2,0-0.5,0-0.7-0.1c-2.4-0.4-4-2.6-3.6-5C59.5,438.8,61.3,437.2,63.5,437.2 M63.5,436.7c-2.3,0-4.4,1.7-4.8,4.1
		c-0.4,2.7,1.4,5.2,4,5.6c0.3,0,0.5,0.1,0.8,0.1c2.3,0,4.4-1.7,4.8-4.1c0.4-2.7-1.4-5.2-4-5.6C64,436.8,63.7,436.7,63.5,436.7
		L63.5,436.7z"/>
</g>
<g>
	<path class="st6" d="M76.5,433.7c-0.2,0-0.5,0-0.8-0.1c-2.5-0.4-4.2-2.8-3.8-5.3c0.4-2.2,2.3-3.9,4.5-3.9c0.2,0,0.5,0,0.8,0.1
		c2.5,0.4,4.2,2.8,3.8,5.3C80.7,432.1,78.8,433.7,76.5,433.7z"/>
	<path class="st5" d="M76.5,424.7L76.5,424.7c0.2,0,0.5,0,0.7,0.1c1.2,0.2,2.2,0.8,2.8,1.8c0.7,0.9,1,2.1,0.8,3.3
		c-0.3,2.1-2.2,3.7-4.3,3.7c-0.2,0-0.5,0-0.7-0.1c-1.2-0.2-2.2-0.8-2.8-1.8c-0.7-0.9-1-2.1-0.8-3.3
		C72.5,426.3,74.3,424.7,76.5,424.7 M76.5,424.2c-2.3,0-4.4,1.7-4.8,4.1c-0.4,2.7,1.4,5.2,4,5.6c0.3,0,0.5,0.1,0.8,0.1
		c2.3,0,4.4-1.7,4.8-4.1c0.4-2.7-1.4-5.2-4-5.6C77,424.3,76.7,424.2,76.5,424.2L76.5,424.2z"/>
</g>
<g>
	<path class="st6" d="M75,403.1c-0.2,0-0.5,0-0.8-0.1c-2.5-0.4-4.2-2.8-3.8-5.3c0.4-2.2,2.3-3.9,4.6-3.9c0.2,0,0.5,0,0.7,0.1
		c1.2,0.2,2.3,0.9,3,1.9s1,2.2,0.8,3.4C79.1,401.4,77.2,403.1,75,403.1z"/>
	<path class="st5" d="M74.9,394.1L74.9,394.1c0.2,0,0.5,0,0.7,0.1c2.4,0.4,4,2.6,3.6,5c-0.3,2.1-2.2,3.7-4.3,3.7
		c-0.2,0-0.5,0-0.7-0.1c-1.2-0.2-2.2-0.8-2.8-1.8c-0.7-0.9-1-2.1-0.8-3.3C71,395.6,72.8,394.1,74.9,394.1 M74.9,393.6
		c-2.3,0-4.4,1.7-4.8,4.1c-0.4,2.7,1.4,5.2,4,5.6c0.3,0,0.5,0.1,0.8,0.1c2.3,0,4.4-1.7,4.8-4.1c0.4-2.7-1.4-5.2-4-5.6
		C75.5,393.6,75.2,393.6,74.9,393.6L74.9,393.6z"/>
</g>
<g>
	<path class="st6" d="M203,73.2c-6.1,0-11.3-3.9-13.1-9.7c-1.1-3.5-0.7-7.2,1-10.4c1.7-3.2,4.6-5.6,8.1-6.7c1.3-0.4,2.6-0.6,4-0.6
		c6.1,0,11.3,3.9,13.1,9.7c2.2,7.2-1.9,14.9-9.1,17.1C205.7,72.9,204.3,73.2,203,73.2z"/>
	<path class="st5" d="M203,46L203,46c6,0,11.1,3.8,12.9,9.5c2.2,7.1-1.9,14.6-8.9,16.8c-1.3,0.4-2.6,0.6-3.9,0.6
		c-6,0-11.1-3.8-12.9-9.5c-2.2-7.1,1.9-14.6,8.9-16.8C200.4,46.2,201.7,46,203,46 M203,45.5c-1.3,0-2.7,0.2-4.1,0.6
		c-7.4,2.2-11.5,10-9.3,17.4c1.8,6,7.4,9.9,13.3,9.9c1.3,0,2.7-0.2,4.1-0.6c7.4-2.2,11.5-10,9.3-17.4C214.5,49.4,209,45.5,203,45.5
		L203,45.5z"/>
</g>
<g>
	<path class="st6" d="M72.8,389.3c-0.2,0-0.5,0-0.8-0.1c-2.5-0.4-4.2-2.8-3.8-5.3c0.4-2.2,2.3-3.9,4.5-3.9c0.2,0,0.5,0,0.8,0.1
		c2.5,0.4,4.2,2.8,3.8,5.3C77,387.7,75.1,389.3,72.8,389.3z"/>
	<path class="st5" d="M72.8,380.3L72.8,380.3c0.2,0,0.5,0,0.7,0.1c2.4,0.4,4,2.6,3.6,5c-0.3,2.1-2.2,3.7-4.3,3.7
		c-0.2,0-0.5,0-0.7-0.1c-1.2-0.2-2.2-0.8-2.8-1.8c-0.7-0.9-1-2.1-0.8-3.3C68.8,381.9,70.6,380.3,72.8,380.3 M72.8,379.8
		c-2.3,0-4.4,1.7-4.8,4.1c-0.4,2.7,1.4,5.2,4,5.6c0.3,0,0.5,0.1,0.8,0.1c2.3,0,4.4-1.7,4.8-4.1c0.4-2.7-1.4-5.2-4-5.6
		C73.3,379.8,73,379.8,72.8,379.8L72.8,379.8z"/>
</g>
<g>
	<path class="st6" d="M154.4,91.8c-0.2,0-0.4,0-0.6,0c-1.9-0.3-3.2-2.1-2.9-4.1c0.3-1.7,1.7-3,3.5-3c0.2,0,0.4,0,0.6,0
		c0.9,0.2,1.7,0.7,2.3,1.4c0.6,0.8,0.8,1.7,0.6,2.6C157.6,90.5,156.1,91.8,154.4,91.8z"/>
	<path class="st5" d="M154.4,85L154.4,85c0.2,0,0.4,0,0.5,0c0.9,0.1,1.6,0.6,2.1,1.3s0.7,1.6,0.6,2.4c-0.3,1.6-1.6,2.8-3.2,2.8
		c-0.2,0-0.4,0-0.5,0c-0.9-0.1-1.6-0.6-2.1-1.3s-0.7-1.6-0.6-2.4C151.4,86.1,152.8,85,154.4,85 M154.4,84.5c-1.8,0-3.4,1.3-3.7,3.2
		c-0.3,2.1,1.1,4,3.1,4.3c0.2,0,0.4,0.1,0.6,0.1c1.8,0,3.4-1.3,3.7-3.2c0.3-2.1-1.1-4-3.1-4.3C154.8,84.5,154.6,84.5,154.4,84.5
		L154.4,84.5z"/>
</g>
<g>
	<path class="st6" d="M162.8,96.1c-0.2,0-0.4,0-0.6,0c-0.9-0.2-1.7-0.7-2.3-1.4c-0.6-0.8-0.8-1.7-0.6-2.6c0.3-1.7,1.7-3,3.5-3
		c0.2,0,0.4,0,0.6,0c0.9,0.2,1.7,0.7,2.3,1.4c0.6,0.8,0.8,1.7,0.6,2.6C166,94.9,164.5,96.1,162.8,96.1z"/>
	<path class="st5" d="M162.8,89.3L162.8,89.3c0.2,0,0.4,0,0.5,0c0.9,0.1,1.6,0.6,2.1,1.3c0.5,0.7,0.7,1.6,0.6,2.4
		c-0.3,1.6-1.6,2.8-3.2,2.8c-0.2,0-0.4,0-0.5,0c-0.9-0.1-1.6-0.6-2.1-1.3s-0.7-1.6-0.6-2.4C159.8,90.5,161.2,89.3,162.8,89.3
		 M162.8,88.8c-1.8,0-3.4,1.3-3.7,3.2c-0.3,2.1,1.1,4,3.1,4.3c0.2,0,0.4,0.1,0.6,0.1c1.8,0,3.4-1.3,3.7-3.2c0.3-2.1-1.1-4-3.1-4.3
		C163.2,88.8,163,88.8,162.8,88.8L162.8,88.8z"/>
</g>
<g>
	<path class="st6" d="M196.8,170.6c-0.2,0-0.4,0-0.6,0c-0.9-0.2-1.7-0.7-2.3-1.4s-0.8-1.7-0.6-2.6c0.3-1.7,1.7-3,3.5-3
		c0.2,0,0.4,0,0.6,0c0.9,0.2,1.7,0.7,2.3,1.4c0.6,0.8,0.8,1.7,0.6,2.6C200,169.3,198.5,170.6,196.8,170.6z"/>
	<path class="st5" d="M196.8,163.7L196.8,163.7c0.2,0,0.4,0,0.5,0c0.9,0.1,1.6,0.6,2.1,1.3c0.5,0.7,0.7,1.6,0.6,2.4
		c-0.3,1.6-1.6,2.8-3.2,2.8c-0.2,0-0.4,0-0.5,0c-0.9-0.1-1.6-0.6-2.1-1.3c-0.5-0.7-0.7-1.6-0.6-2.4
		C193.8,164.9,195.2,163.7,196.8,163.7 M196.8,163.2c-1.8,0-3.4,1.3-3.7,3.2c-0.3,2.1,1.1,4,3.1,4.3c0.2,0,0.4,0.1,0.6,0.1
		c1.8,0,3.4-1.3,3.7-3.2c0.3-2.1-1.1-4-3.1-4.3C197.2,163.3,197,163.2,196.8,163.2L196.8,163.2z"/>
</g>
<g>
	<path class="st6" d="M214.6,142.5c-0.2,0-0.4,0-0.6,0c-1.9-0.3-3.2-2.1-2.9-4.1c0.3-1.7,1.7-3,3.5-3c0.2,0,0.4,0,0.6,0
		c0.9,0.2,1.7,0.7,2.3,1.4c0.6,0.8,0.8,1.7,0.6,2.6C217.8,141.3,216.4,142.5,214.6,142.5z"/>
	<path class="st5" d="M214.6,135.7L214.6,135.7c0.2,0,0.4,0,0.5,0c1.8,0.3,3,2,2.7,3.8c-0.3,1.6-1.6,2.8-3.2,2.8c-0.2,0-0.4,0-0.5,0
		c-0.9-0.1-1.6-0.6-2.1-1.3s-0.7-1.6-0.6-2.4C211.6,136.9,213,135.7,214.6,135.7 M214.6,135.2c-1.8,0-3.4,1.3-3.7,3.2
		c-0.3,2.1,1.1,4,3.1,4.3c0.2,0,0.4,0.1,0.6,0.1c1.8,0,3.4-1.3,3.7-3.2c0.3-2.1-1.1-4-3.1-4.3C215,135.2,214.8,135.2,214.6,135.2
		L214.6,135.2z"/>
</g>
<g>
	<path class="st6" d="M72.5,456.2c-0.2,0-0.4,0-0.6,0c-1.9-0.3-3.2-2.1-2.9-4.1c0.3-1.7,1.7-3,3.5-3c0.2,0,0.4,0,0.6,0
		c0.9,0.2,1.7,0.7,2.3,1.4c0.6,0.8,0.8,1.7,0.6,2.6C75.7,455,74.2,456.2,72.5,456.2z"/>
	<path class="st5" d="M72.5,449.4L72.5,449.4c0.2,0,0.4,0,0.5,0c0.9,0.1,1.6,0.6,2.1,1.3c0.5,0.7,0.7,1.6,0.6,2.4
		c-0.3,1.6-1.6,2.8-3.2,2.8c-0.2,0-0.4,0-0.5,0c-0.9-0.1-1.6-0.6-2.1-1.3c-0.5-0.7-0.7-1.6-0.6-2.4
		C69.5,450.5,70.9,449.4,72.5,449.4 M72.5,448.9c-1.8,0-3.4,1.3-3.7,3.2c-0.3,2.1,1.1,4,3.1,4.3c0.2,0,0.4,0.1,0.6,0.1
		c1.8,0,3.4-1.3,3.7-3.2c0.3-2.1-1.1-4-3.1-4.3C72.9,448.9,72.7,448.9,72.5,448.9L72.5,448.9z"/>
</g>
<g>
	<path class="st6" d="M65.1,432.1c-0.2,0-0.4,0-0.6,0c-0.9-0.2-1.7-0.7-2.3-1.4c-0.6-0.8-0.8-1.7-0.6-2.6c0.3-1.7,1.7-3,3.5-3
		c0.2,0,0.4,0,0.6,0c0.9,0.2,1.7,0.7,2.3,1.4c0.6,0.8,0.8,1.7,0.6,2.6C68.3,430.8,66.9,432.1,65.1,432.1z"/>
	<path class="st5" d="M65.1,425.2L65.1,425.2c0.2,0,0.4,0,0.5,0c1.8,0.3,3,2,2.7,3.8c-0.3,1.6-1.6,2.8-3.2,2.8c-0.2,0-0.4,0-0.5,0
		c-1.8-0.3-3-2-2.7-3.8C62.1,426.4,63.5,425.2,65.1,425.2 M65.1,424.7c-1.8,0-3.4,1.3-3.7,3.2c-0.3,2.1,1.1,4,3.1,4.3
		c0.2,0,0.4,0.1,0.6,0.1c1.8,0,3.4-1.3,3.7-3.2c0.3-2.1-1.1-4-3.1-4.3C65.5,424.8,65.3,424.7,65.1,424.7L65.1,424.7z"/>
</g>
<g>
	<path class="st6" d="M168.7,90.6c-0.2,0-0.4,0-0.6,0c-0.9-0.2-1.7-0.7-2.3-1.4s-0.8-1.7-0.6-2.6c0.3-1.7,1.7-3,3.5-3
		c0.2,0,0.4,0,0.6,0c0.9,0.2,1.7,0.7,2.3,1.4s0.8,1.7,0.6,2.6C171.9,89.3,170.4,90.6,168.7,90.6z"/>
	<path class="st5" d="M168.7,83.7L168.7,83.7c0.2,0,0.4,0,0.5,0c0.9,0.1,1.6,0.6,2.1,1.3s0.7,1.6,0.6,2.4c-0.3,1.6-1.6,2.8-3.2,2.8
		c-0.2,0-0.4,0-0.5,0c-0.9-0.1-1.6-0.6-2.1-1.3s-0.7-1.6-0.6-2.4C165.7,84.9,167,83.7,168.7,83.7 M168.7,83.2
		c-1.8,0-3.4,1.3-3.7,3.2c-0.3,2.1,1.1,4,3.1,4.3c0.2,0,0.4,0.1,0.6,0.1c1.8,0,3.4-1.3,3.7-3.2c0.3-2.1-1.1-4-3.1-4.3
		C169.1,83.3,168.9,83.2,168.7,83.2L168.7,83.2z"/>
</g>
<g>
	<path class="st6" d="M141.6,83.3c-0.2,0-0.4,0-0.6,0c-1.9-0.3-3.2-2.1-2.9-4.1c0.3-1.7,1.7-3,3.5-3c0.2,0,0.4,0,0.6,0
		c0.9,0.2,1.7,0.7,2.3,1.4c0.6,0.8,0.8,1.7,0.6,2.6C144.8,82.1,143.3,83.3,141.6,83.3z"/>
	<path class="st5" d="M141.6,76.5L141.6,76.5c0.2,0,0.4,0,0.5,0c0.9,0.1,1.6,0.6,2.1,1.3s0.7,1.6,0.6,2.4c-0.3,1.6-1.6,2.8-3.2,2.8
		c-0.2,0-0.4,0-0.5,0c-0.9-0.1-1.6-0.6-2.1-1.3s-0.7-1.6-0.6-2.4C138.6,77.7,140,76.5,141.6,76.5 M141.6,76c-1.8,0-3.4,1.3-3.7,3.2
		c-0.3,2.1,1.1,4,3.1,4.3c0.2,0,0.4,0.1,0.6,0.1c1.8,0,3.4-1.3,3.7-3.2c0.3-2.1-1.1-4-3.1-4.3C142,76,141.8,76,141.6,76L141.6,76z"
		/>
</g>
<g>
	<path class="st6" d="M165.5,75.9c-0.2,0-0.5,0-0.8-0.1c-1.2-0.2-2.3-0.9-3-1.9c-0.7-1-1-2.2-0.8-3.4c0.4-2.2,2.3-3.9,4.5-3.9
		c0.2,0,0.5,0,0.8,0.1c2.5,0.4,4.2,2.8,3.8,5.3C169.6,74.3,167.7,75.9,165.5,75.9z"/>
	<path class="st5" d="M165.5,66.9L165.5,66.9c0.2,0,0.5,0,0.7,0.1c2.4,0.4,4,2.6,3.6,5c-0.3,2.1-2.2,3.7-4.3,3.7
		c-0.2,0-0.5,0-0.7-0.1c-2.4-0.4-4-2.6-3.6-5C161.5,68.5,163.3,66.9,165.5,66.9 M165.5,66.4c-2.3,0-4.4,1.7-4.8,4.1
		c-0.4,2.7,1.4,5.2,4,5.6c0.3,0,0.5,0.1,0.8,0.1c2.3,0,4.4-1.7,4.8-4.1c0.4-2.7-1.4-5.2-4-5.6C166,66.5,165.7,66.4,165.5,66.4
		L165.5,66.4z"/>
</g>
<g>
	<path class="st6" d="M179.7,78.3c-0.2,0-0.5,0-0.8-0.1c-2.5-0.4-4.2-2.8-3.8-5.3c0.4-2.2,2.3-3.9,4.5-3.9c0.2,0,0.5,0,0.8,0.1
		c2.5,0.4,4.2,2.8,3.8,5.3C183.9,76.6,182,78.3,179.7,78.3z"/>
	<path class="st5" d="M179.7,69.3L179.7,69.3c0.2,0,0.5,0,0.7,0.1c1.2,0.2,2.2,0.8,2.8,1.8c0.7,0.9,1,2.1,0.8,3.3
		c-0.3,2.1-2.2,3.7-4.3,3.7c-0.2,0-0.5,0-0.7-0.1c-1.2-0.2-2.2-0.8-2.8-1.8c-0.7-0.9-1-2.1-0.8-3.3
		C175.7,70.8,177.5,69.3,179.7,69.3 M179.7,68.8c-2.3,0-4.4,1.7-4.8,4.1c-0.4,2.7,1.4,5.2,4,5.6c0.3,0,0.5,0.1,0.8,0.1
		c2.3,0,4.4-1.7,4.8-4.1c0.4-2.7-1.4-5.2-4-5.6C180.2,68.8,179.9,68.8,179.7,68.8L179.7,68.8z"/>
</g>
<g>
	<path class="st6" d="M192.7,65.8c-0.2,0-0.5,0-0.8-0.1c-2.5-0.4-4.2-2.8-3.8-5.3c0.4-2.2,2.3-3.9,4.5-3.9c0.2,0,0.5,0,0.8,0.1
		c1.2,0.2,2.3,0.9,3,1.9c0.7,1,1,2.2,0.8,3.4C196.9,64.1,195,65.8,192.7,65.8z"/>
	<path class="st5" d="M192.7,56.8L192.7,56.8c0.2,0,0.5,0,0.7,0.1c2.4,0.4,4,2.6,3.6,5c-0.3,2.1-2.2,3.7-4.3,3.7
		c-0.2,0-0.5,0-0.7-0.1c-1.2-0.2-2.2-0.8-2.8-1.8c-0.7-0.9-1-2.1-0.8-3.3C188.7,58.3,190.5,56.8,192.7,56.8 M192.7,56.3
		c-2.3,0-4.4,1.7-4.8,4.1c-0.4,2.7,1.4,5.2,4,5.6c0.3,0,0.5,0.1,0.8,0.1c2.3,0,4.4-1.7,4.8-4.1c0.4-2.7-1.4-5.2-4-5.6
		C193.2,56.3,192.9,56.3,192.7,56.3L192.7,56.3z"/>
</g>
<g>
	<path class="st6" d="M55.1,394.2c-0.2,0-0.5,0-0.7-0.1c-1.2-0.2-2.3-0.9-3-1.9s-1-2.2-0.8-3.4c0.4-2.2,2.3-3.9,4.5-3.9
		c0.2,0,0.5,0,0.8,0.1c2.5,0.4,4.2,2.8,3.8,5.3C59.3,392.5,57.4,394.2,55.1,394.2z"/>
	<path class="st5" d="M55.1,385.2L55.1,385.2c0.2,0,0.5,0,0.7,0.1c1.2,0.2,2.2,0.8,2.8,1.8c0.7,0.9,1,2.1,0.8,3.3
		c-0.3,2.1-2.2,3.7-4.3,3.7c-0.2,0-0.5,0-0.7-0.1c-2.4-0.4-4-2.6-3.6-5C51.2,386.7,53,385.2,55.1,385.2 M55.1,384.7
		c-2.3,0-4.4,1.7-4.8,4.1c-0.4,2.7,1.4,5.2,4,5.6c0.3,0,0.5,0.1,0.8,0.1c2.3,0,4.4-1.7,4.8-4.1c0.4-2.7-1.4-5.2-4-5.6
		C55.6,384.7,55.4,384.7,55.1,384.7L55.1,384.7z"/>
</g>
<g>
	<path class="st6" d="M173.5,89.4c-0.1,0-0.1,0-0.2,0c-0.7-0.1-1.1-0.7-1-1.4c0.1-0.6,0.6-1,1.2-1c0.1,0,0.1,0,0.2,0
		c0.3,0.1,0.6,0.2,0.8,0.5c0.2,0.3,0.3,0.6,0.2,0.9C174.6,89,174.1,89.4,173.5,89.4z"/>
	<path class="st5" d="M173.5,87.3L173.5,87.3c0.1,0,0.1,0,0.2,0c0.3,0,0.5,0.2,0.6,0.4c0.1,0.2,0.2,0.5,0.2,0.7
		c-0.1,0.5-0.5,0.8-0.9,0.8c-0.1,0-0.1,0-0.2,0c-0.3,0-0.5-0.2-0.6-0.4c-0.1-0.2-0.2-0.5-0.2-0.7C172.6,87.6,173,87.3,173.5,87.3
		 M173.5,86.8c-0.7,0-1.3,0.5-1.4,1.2c-0.1,0.8,0.4,1.5,1.2,1.7c0.1,0,0.2,0,0.2,0c0.7,0,1.3-0.5,1.4-1.2c0.1-0.8-0.4-1.5-1.2-1.7
		C173.7,86.8,173.6,86.8,173.5,86.8L173.5,86.8z"/>
</g>
<g>
	<path class="st6" d="M713,168.5c-1.6,0-2.9-1-3.4-2.5c-0.6-1.9,0.5-3.8,2.4-4.4c0.3-0.1,0.7-0.2,1-0.2c1.6,0,2.9,1,3.4,2.5
		c0.3,0.9,0.2,1.9-0.3,2.7c-0.4,0.8-1.2,1.4-2.1,1.7C713.7,168.5,713.4,168.5,713,168.5z"/>
	<path class="st5" d="M713,161.7L713,161.7c1.5,0,2.7,0.9,3.1,2.3c0.5,1.7-0.5,3.6-2.2,4.1c-0.3,0.1-0.6,0.1-1,0.1
		c-1.5,0-2.7-0.9-3.1-2.3c-0.5-1.7,0.5-3.6,2.2-4.1C712.4,161.7,712.7,161.7,713,161.7 M713,161.2c-0.4,0-0.7,0.1-1.1,0.2
		c-2,0.6-3.1,2.7-2.5,4.7c0.5,1.6,2,2.7,3.6,2.7c0.4,0,0.7-0.1,1.1-0.2c2-0.6,3.1-2.7,2.5-4.7C716.1,162.2,714.6,161.2,713,161.2
		L713,161.2z"/>
</g>
<g>
	<circle class="st7" cx="218.7" cy="99.6" r="6.8"/>
	<circle class="st7" cx="92.9" cy="95" r="6.8"/>
	<circle class="st7" cx="188.7" cy="127.7" r="6.8"/>
	<circle class="st7" cx="493.2" cy="156.1" r="6.8"/>
</g>
<linearGradient id="SVGID_3_" gradientUnits="userSpaceOnUse" x1="621.2402" y1="348.303" x2="621.2402" y2="476.1121">
	<stop  offset="0" style="stop-color:#FFFFFF;stop-opacity:0"/>
	<stop  offset="1" style="stop-color:#FFFFFF"/>
</linearGradient>
<rect x="-5.7" y="241.8" class="st8" width="1253.8" height="261.3"/>
</svg>
